<svg width="272" height="308" viewBox="0 0 272 308" fill="none" xmlns="http://www.w3.org/2000/svg">
<mask id="mask0" style="mask-type:alpha" maskUnits="userSpaceOnUse" x="0" y="0" width="272" height="308">
<path d="M250 308H22C9.84974 308 0 298.15 0 286V22C0 9.84974 9.84974 0 22 0H170L272 102V286C272 298.15 262.15 308 250 308Z" fill="url(#paint0_linear)"/>
</mask>
<g mask="url(#mask0)">
<path d="M250 308H22C9.84974 308 0 298.15 0 286V22C0 9.84974 9.84974 0 22 0H170L272 102V286C272 298.15 262.15 308 250 308Z" fill="url(#paint1_linear)"/>
<g filter="url(#filter0_f)">
<rect x="48" y="149" width="178" height="84" fill="#0B07C6" fill-opacity="0.16" style="mix-blend-mode:darken"/>
</g>
<path d="M52.6958 217.395C51.6951 217.395 50.8525 217.053 50.1678 216.368C49.4831 215.683 49.1408 214.841 49.1408 213.84V166.677C49.1408 165.255 49.6411 164.044 50.6418 163.043C51.6425 161.99 52.8538 161.463 54.2758 161.463H56.8828C57.9361 161.463 58.8841 161.779 59.7268 162.411C60.6221 163.043 61.2805 163.833 61.7018 164.781L79.6348 209.495L97.5678 164.781C97.9892 163.833 98.6212 163.043 99.4638 162.411C100.359 161.779 101.333 161.463 102.387 161.463H104.994C106.416 161.463 107.627 161.99 108.628 163.043C109.628 164.044 110.129 165.255 110.129 166.677V213.84C110.129 214.841 109.786 215.683 109.102 216.368C108.417 217.053 107.574 217.395 106.574 217.395C105.573 217.395 104.704 217.053 103.967 216.368C103.282 215.683 102.94 214.841 102.94 213.84V168.968L84.6908 214.077C84.2695 215.078 83.5848 215.894 82.6368 216.526C81.7415 217.105 80.7408 217.395 79.6348 217.395C78.5288 217.395 77.5018 217.105 76.5538 216.526C75.6585 215.894 75.0001 215.078 74.5788 214.077L56.3298 168.968V213.84C56.3298 214.841 55.9611 215.683 55.2238 216.368C54.5391 217.053 53.6965 217.395 52.6958 217.395ZM134.526 217.395C133.525 217.395 132.682 217.053 131.998 216.368C131.313 215.683 130.971 214.841 130.971 213.84V165.492C130.971 164.491 131.313 163.649 131.998 162.964C132.682 162.227 133.525 161.858 134.526 161.858H152.538C157.541 161.858 161.623 162.701 164.783 164.386C167.943 166.071 170.207 168.231 171.577 170.864C172.946 173.497 173.631 176.341 173.631 179.396C173.631 182.451 172.946 185.295 171.577 187.928C170.207 190.561 167.943 192.721 164.783 194.406C161.623 196.091 157.541 196.934 152.538 196.934H138.16V213.84C138.16 214.841 137.791 215.683 137.054 216.368C136.369 217.053 135.526 217.395 134.526 217.395ZM151.827 190.14C157.199 190.14 160.964 189.113 163.124 187.059C165.336 185.005 166.442 182.451 166.442 179.396C166.442 176.341 165.336 173.787 163.124 171.733C160.964 169.679 157.199 168.652 151.827 168.652H138.16V190.14H151.827ZM205.142 217.79C199.296 217.79 193.792 216.737 188.631 214.63C187.999 214.367 187.498 213.998 187.13 213.524C186.761 212.997 186.577 212.365 186.577 211.628C186.577 210.733 186.866 209.969 187.446 209.337C188.078 208.652 188.841 208.31 189.737 208.31C190.211 208.31 190.711 208.415 191.238 208.626C195.03 210.153 199.217 210.917 203.799 210.917C207.907 210.917 211.356 210.259 214.148 208.942C216.992 207.573 218.414 205.308 218.414 202.148C218.414 195.512 212.594 192.194 200.955 192.194H199.691C198.795 192.194 198.005 191.878 197.321 191.246C196.689 190.561 196.373 189.771 196.373 188.876C196.373 187.981 196.689 187.217 197.321 186.585C198.005 185.9 198.795 185.558 199.691 185.558H200.165C205.431 185.558 209.46 184.768 212.252 183.188C215.043 181.555 216.439 179.159 216.439 175.999C216.439 173.471 215.385 171.47 213.279 169.995C211.172 168.52 208.065 167.783 203.957 167.783C199.533 167.783 195.451 168.652 191.712 170.39C191.185 170.601 190.711 170.706 190.29 170.706C189.5 170.706 188.815 170.443 188.236 169.916C187.656 169.337 187.367 168.626 187.367 167.783C187.367 166.572 187.893 165.676 188.947 165.097C194.003 162.411 199.217 161.068 204.589 161.068C210.645 161.068 215.333 162.306 218.651 164.781C221.969 167.256 223.628 170.759 223.628 175.288C223.628 178.922 222.706 181.792 220.863 183.899C219.072 185.953 216.807 187.48 214.069 188.481C217.071 189.166 219.73 190.614 222.048 192.826C224.418 194.985 225.603 198.224 225.603 202.543C225.603 207.388 223.68 211.154 219.836 213.84C216.044 216.473 211.146 217.79 205.142 217.79Z" fill="white"/>
<path d="M50.1678 216.368L51.582 214.954H51.582L50.1678 216.368ZM50.6418 163.043L52.056 164.457L52.0742 164.439L52.0918 164.42L50.6418 163.043ZM59.7268 162.411L58.5268 164.011L58.5499 164.028L58.5734 164.045L59.7268 162.411ZM61.7018 164.781L63.5581 164.037L63.5444 164.002L63.5294 163.969L61.7018 164.781ZM79.6348 209.495L77.7785 210.239L79.6348 214.868L81.4911 210.239L79.6348 209.495ZM97.5678 164.781L95.7402 163.969L95.7252 164.002L95.7115 164.037L97.5678 164.781ZM99.4638 162.411L98.3105 160.777L98.2869 160.794L98.2638 160.811L99.4638 162.411ZM108.628 163.043L107.178 164.42L107.195 164.439L107.214 164.457L108.628 163.043ZM109.102 216.368L110.516 217.782H110.516L109.102 216.368ZM103.967 216.368L102.553 217.782L102.579 217.808L102.606 217.834L103.967 216.368ZM102.94 168.968H104.94L101.086 168.218L102.94 168.968ZM84.6908 214.077L86.5341 214.853L86.5396 214.84L86.5448 214.827L84.6908 214.077ZM82.6368 216.526L83.7233 218.205L83.7348 218.198L83.7462 218.19L82.6368 216.526ZM76.5538 216.526L75.4005 218.16L75.4545 218.198L75.5109 218.233L76.5538 216.526ZM74.5788 214.077L72.7248 214.827L72.7301 214.84L72.7355 214.853L74.5788 214.077ZM56.3298 168.968L58.1838 168.218L54.3298 168.968H56.3298ZM55.2238 216.368L53.8629 214.902L53.8358 214.928L53.8096 214.954L55.2238 216.368ZM52.6958 215.395C52.2057 215.395 51.8778 215.25 51.582 214.954L48.7536 217.782C49.8271 218.856 51.1846 219.395 52.6958 219.395V215.395ZM51.582 214.954C51.2862 214.658 51.1408 214.33 51.1408 213.84H47.1408C47.1408 215.351 47.6801 216.709 48.7536 217.782L51.582 214.954ZM51.1408 213.84V166.677H47.1408V213.84H51.1408ZM51.1408 166.677C51.1408 165.783 51.4325 165.081 52.056 164.457L49.2276 161.629C47.8498 163.007 47.1408 164.727 47.1408 166.677H51.1408ZM52.0918 164.42C52.7242 163.755 53.4153 163.463 54.2758 163.463V159.463C52.2923 159.463 50.5608 160.224 49.1918 161.665L52.0918 164.42ZM54.2758 163.463H56.8828V159.463H54.2758V163.463ZM56.8828 163.463C57.5034 163.463 58.0303 163.639 58.5268 164.011L60.9268 160.811C59.738 159.919 58.3689 159.463 56.8828 159.463V163.463ZM58.5734 164.045C59.1913 164.481 59.6078 164.994 59.8742 165.593L63.5294 163.969C62.9532 162.672 62.0529 161.605 60.8802 160.777L58.5734 164.045ZM59.8455 165.525L77.7785 210.239L81.4911 208.751L63.5581 164.037L59.8455 165.525ZM81.4911 210.239L99.4241 165.525L95.7115 164.037L77.7785 208.751L81.4911 210.239ZM99.3954 165.593C99.676 164.962 100.09 164.442 100.664 164.011L98.2638 160.811C97.1526 161.644 96.3023 162.704 95.7402 163.969L99.3954 165.593ZM100.617 164.045C101.19 163.641 101.764 163.463 102.387 163.463V159.463C100.903 159.463 99.5287 159.917 98.3105 160.777L100.617 164.045ZM102.387 163.463H104.994V159.463H102.387V163.463ZM104.994 163.463C105.854 163.463 106.545 163.755 107.178 164.42L110.078 161.665C108.709 160.224 106.977 159.463 104.994 159.463V163.463ZM107.214 164.457C107.837 165.081 108.129 165.783 108.129 166.677H112.129C112.129 164.727 111.42 163.007 110.042 161.629L107.214 164.457ZM108.129 166.677V213.84H112.129V166.677H108.129ZM108.129 213.84C108.129 214.33 107.983 214.658 107.688 214.954L110.516 217.782C111.59 216.709 112.129 215.351 112.129 213.84H108.129ZM107.688 214.954C107.392 215.25 107.064 215.395 106.574 215.395V219.395C108.085 219.395 109.442 218.856 110.516 217.782L107.688 214.954ZM106.574 215.395C106.081 215.395 105.697 215.246 105.328 214.902L102.606 217.834C103.711 218.86 105.065 219.395 106.574 219.395V215.395ZM105.381 214.954C105.085 214.658 104.94 214.33 104.94 213.84H100.94C100.94 215.351 101.479 216.709 102.553 217.782L105.381 214.954ZM104.94 213.84V168.968H100.94V213.84H104.94ZM101.086 168.218L82.8368 213.327L86.5448 214.827L104.794 169.718L101.086 168.218ZM82.8475 213.301C82.5862 213.922 82.166 214.436 81.5274 214.862L83.7462 218.19C85.0036 217.352 85.9528 216.234 86.5341 214.853L82.8475 213.301ZM81.5503 214.847C80.9911 215.209 80.3704 215.395 79.6348 215.395V219.395C81.1112 219.395 82.4919 219.002 83.7233 218.205L81.5503 214.847ZM79.6348 215.395C78.8986 215.395 78.2322 215.208 77.5967 214.819L75.5109 218.233C76.7714 219.003 78.159 219.395 79.6348 219.395V215.395ZM77.7072 214.892C77.1145 214.474 76.6968 213.953 76.4221 213.301L72.7355 214.853C73.3035 216.202 74.2025 217.314 75.4005 218.16L77.7072 214.892ZM76.4328 213.327L58.1838 168.218L54.4758 169.718L72.7248 214.827L76.4328 213.327ZM54.3298 168.968V213.84H58.3298V168.968H54.3298ZM54.3298 213.84C54.3298 214.281 54.1953 214.594 53.8629 214.902L56.5847 217.834C57.727 216.773 58.3298 215.4 58.3298 213.84H54.3298ZM53.8096 214.954C53.5138 215.25 53.1859 215.395 52.6958 215.395V219.395C54.2071 219.395 55.5645 218.856 56.638 217.782L53.8096 214.954ZM131.998 216.368L133.412 214.954L131.998 216.368ZM131.998 162.964L133.412 164.378L133.438 164.352L133.463 164.325L131.998 162.964ZM164.783 164.386L165.724 162.621L164.783 164.386ZM171.577 170.864L169.802 171.787L171.577 170.864ZM171.577 187.928L169.802 187.005V187.005L171.577 187.928ZM164.783 194.406L165.724 196.171L164.783 194.406ZM138.16 196.934V194.934H136.16V196.934H138.16ZM137.054 216.368L135.693 214.902L135.666 214.928L135.639 214.954L137.054 216.368ZM163.124 187.059L161.763 185.593L161.754 185.602L161.745 185.61L163.124 187.059ZM163.124 171.733L161.745 173.182L161.754 173.19L161.763 173.199L163.124 171.733ZM138.16 168.652V166.652H136.16V168.652H138.16ZM138.16 190.14H136.16V192.14H138.16V190.14ZM134.526 215.395C134.036 215.395 133.708 215.25 133.412 214.954L130.583 217.782C131.657 218.856 133.014 219.395 134.526 219.395V215.395ZM133.412 214.954C133.116 214.658 132.971 214.33 132.971 213.84H128.971C128.971 215.351 129.51 216.709 130.583 217.782L133.412 214.954ZM132.971 213.84V165.492H128.971V213.84H132.971ZM132.971 165.492C132.971 165.002 133.116 164.674 133.412 164.378L130.583 161.55C129.51 162.623 128.971 163.981 128.971 165.492H132.971ZM133.463 164.325C133.772 163.993 134.085 163.858 134.526 163.858V159.858C132.965 159.858 131.593 160.461 130.532 161.603L133.463 164.325ZM134.526 163.858H152.538V159.858H134.526V163.858ZM152.538 163.858C157.336 163.858 161.063 164.669 163.841 166.151L165.724 162.621C162.182 160.732 157.746 159.858 152.538 159.858V163.858ZM163.841 166.151C166.72 167.686 168.655 169.58 169.802 171.787L173.351 169.941C171.76 166.881 169.165 164.457 165.724 162.621L163.841 166.151ZM169.802 171.787C171.019 174.127 171.631 176.653 171.631 179.396H175.631C175.631 176.03 174.873 172.868 173.351 169.941L169.802 171.787ZM171.631 179.396C171.631 182.139 171.019 184.665 169.802 187.005L173.351 188.851C174.873 185.924 175.631 182.762 175.631 179.396H171.631ZM169.802 187.005C168.655 189.212 166.72 191.106 163.841 192.641L165.724 196.171C169.165 194.335 171.76 191.911 173.351 188.851L169.802 187.005ZM163.841 192.641C161.063 194.123 157.336 194.934 152.538 194.934V198.934C157.746 198.934 162.182 198.06 165.724 196.171L163.841 192.641ZM152.538 194.934H138.16V198.934H152.538V194.934ZM136.16 196.934V213.84H140.16V196.934H136.16ZM136.16 213.84C136.16 214.281 136.025 214.594 135.693 214.902L138.415 217.834C139.557 216.773 140.16 215.4 140.16 213.84H136.16ZM135.639 214.954C135.344 215.25 135.016 215.395 134.526 215.395V219.395C136.037 219.395 137.394 218.856 138.468 217.782L135.639 214.954ZM151.827 192.14C157.339 192.14 161.768 191.109 164.502 188.508L161.745 185.61C160.16 187.117 157.059 188.14 151.827 188.14V192.14ZM164.485 188.525C167.11 186.087 168.442 182.999 168.442 179.396H164.442C164.442 181.902 163.562 183.923 161.763 185.593L164.485 188.525ZM168.442 179.396C168.442 175.793 167.11 172.705 164.485 170.267L161.763 173.199C163.562 174.869 164.442 176.89 164.442 179.396H168.442ZM164.502 170.284C161.768 167.683 157.339 166.652 151.827 166.652V170.652C157.059 170.652 160.16 171.675 161.745 173.182L164.502 170.284ZM151.827 166.652H138.16V170.652H151.827V166.652ZM136.16 168.652V190.14H140.16V168.652H136.16ZM138.16 192.14H151.827V188.14H138.16V192.14ZM188.631 214.63L187.862 216.476L187.868 216.479L187.875 216.482L188.631 214.63ZM187.13 213.524L185.491 214.671L185.52 214.712L185.551 214.752L187.13 213.524ZM187.446 209.337L185.976 207.98L185.971 207.986L187.446 209.337ZM191.238 208.626L191.985 206.771L191.981 206.769L191.238 208.626ZM214.148 208.942L215.001 210.751L215.008 210.747L215.015 210.744L214.148 208.942ZM197.321 191.246L195.851 192.603L195.905 192.661L195.964 192.716L197.321 191.246ZM197.321 186.585L198.735 187.999L197.321 186.585ZM212.252 183.188L213.237 184.929L213.249 184.922L213.262 184.914L212.252 183.188ZM191.712 170.39L192.455 172.247L192.505 172.227L192.555 172.204L191.712 170.39ZM188.236 169.916L186.822 171.33L186.855 171.364L186.89 171.396L188.236 169.916ZM188.947 165.097L188.008 163.331L187.996 163.338L187.983 163.345L188.947 165.097ZM218.651 164.781L219.847 163.178V163.178L218.651 164.781ZM220.863 183.899L219.358 182.582L219.355 182.585L220.863 183.899ZM214.069 188.481L213.382 186.602L207.024 188.926L213.624 190.431L214.069 188.481ZM222.048 192.826L220.667 194.273L220.684 194.289L220.701 194.304L222.048 192.826ZM219.836 213.84L220.977 215.483L220.981 215.48L219.836 213.84ZM205.142 215.79C199.542 215.79 194.296 214.782 189.387 212.778L187.875 216.482C193.288 218.691 199.049 219.79 205.142 219.79V215.79ZM189.4 212.784C189.041 212.634 188.837 212.461 188.708 212.296L185.551 214.752C186.16 215.535 186.956 216.099 187.862 216.476L189.4 212.784ZM188.768 212.377C188.668 212.234 188.577 212.017 188.577 211.628H184.577C184.577 212.713 184.854 213.76 185.491 214.671L188.768 212.377ZM188.577 211.628C188.577 211.209 188.695 210.934 188.92 210.688L185.971 207.986C185.038 209.004 184.577 210.257 184.577 211.628H188.577ZM188.915 210.694C189.186 210.4 189.425 210.31 189.737 210.31V206.31C188.258 206.31 186.969 206.904 185.976 207.98L188.915 210.694ZM189.737 210.31C189.912 210.31 190.159 210.349 190.495 210.483L191.981 206.769C191.263 206.482 190.51 206.31 189.737 206.31V210.31ZM190.491 210.481C194.547 212.115 198.992 212.917 203.799 212.917V208.917C199.442 208.917 195.512 208.192 191.985 206.771L190.491 210.481ZM203.799 212.917C208.109 212.917 211.87 212.228 215.001 210.751L213.295 207.133C210.843 208.289 207.705 208.917 203.799 208.917V212.917ZM215.015 210.744C216.715 209.926 218.096 208.785 219.041 207.28C219.986 205.775 220.414 204.035 220.414 202.148H216.414C216.414 203.421 216.13 204.393 215.653 205.153C215.177 205.913 214.425 206.589 213.28 207.14L215.015 210.744ZM220.414 202.148C220.414 198.103 218.566 194.956 215.04 192.945C211.68 191.03 206.899 190.194 200.955 190.194V194.194C206.65 194.194 210.598 195.017 213.058 196.42C215.352 197.727 216.414 199.557 216.414 202.148H220.414ZM200.955 190.194H199.691V194.194H200.955V190.194ZM199.691 190.194C199.32 190.194 199.009 190.083 198.677 189.776L195.964 192.716C197.002 193.673 198.271 194.194 199.691 194.194V190.194ZM198.79 189.889C198.484 189.558 198.373 189.246 198.373 188.876H194.373C194.373 190.296 194.893 191.565 195.851 192.603L198.79 189.889ZM198.373 188.876C198.373 188.51 198.479 188.255 198.735 187.999L195.907 185.171C194.899 186.179 194.373 187.451 194.373 188.876H198.373ZM198.735 187.999C199.078 187.656 199.372 187.558 199.691 187.558V183.558C198.219 183.558 196.933 184.145 195.907 185.171L198.735 187.999ZM199.691 187.558H200.165V183.558H199.691V187.558ZM200.165 187.558C205.579 187.558 210.01 186.755 213.237 184.929L211.267 181.447C208.91 182.781 205.284 183.558 200.165 183.558V187.558ZM213.262 184.914C216.648 182.933 218.439 179.89 218.439 175.999H214.439C214.439 178.428 213.438 180.177 211.242 181.462L213.262 184.914ZM218.439 175.999C218.439 172.805 217.056 170.198 214.426 168.357L212.132 171.633C213.715 172.742 214.439 174.137 214.439 175.999H218.439ZM214.426 168.357C211.836 166.544 208.25 165.783 203.957 165.783V169.783C207.88 169.783 210.508 170.497 212.132 171.633L214.426 168.357ZM203.957 165.783C199.263 165.783 194.891 166.707 190.869 168.576L192.555 172.204C196.011 170.597 199.802 169.783 203.957 169.783V165.783ZM190.969 168.533C190.602 168.68 190.385 168.706 190.29 168.706V172.706C191.037 172.706 191.769 172.521 192.455 172.247L190.969 168.533ZM190.29 168.706C189.992 168.706 189.789 168.625 189.581 168.436L186.89 171.396C187.842 172.261 189.007 172.706 190.29 172.706V168.706ZM189.65 168.502C189.457 168.309 189.367 168.112 189.367 167.783H185.367C185.367 169.139 185.855 170.364 186.822 171.33L189.65 168.502ZM189.367 167.783C189.367 167.474 189.431 167.31 189.486 167.217C189.54 167.125 189.649 166.993 189.911 166.849L187.983 163.345C187.191 163.78 186.511 164.385 186.038 165.189C185.566 165.992 185.367 166.881 185.367 167.783H189.367ZM189.885 166.863C194.672 164.32 199.565 163.068 204.589 163.068V159.068C198.868 159.068 193.334 160.502 188.008 163.331L189.885 166.863ZM204.589 163.068C210.406 163.068 214.609 164.261 217.455 166.384L219.847 163.178C216.056 160.35 210.885 159.068 204.589 159.068V163.068ZM217.455 166.384C220.214 168.443 221.628 171.321 221.628 175.288H225.628C225.628 170.196 223.723 166.07 219.847 163.178L217.455 166.384ZM221.628 175.288C221.628 178.585 220.796 180.938 219.358 182.582L222.368 185.216C224.616 182.647 225.628 179.259 225.628 175.288H221.628ZM219.355 182.585C217.802 184.367 215.827 185.709 213.382 186.602L214.755 190.36C217.788 189.251 220.342 187.539 222.37 185.213L219.355 182.585ZM213.624 190.431C216.26 191.032 218.599 192.299 220.667 194.273L223.429 191.379C220.861 188.929 217.882 187.299 214.513 186.531L213.624 190.431ZM220.701 194.304C222.525 195.966 223.603 198.583 223.603 202.543H227.603C227.603 197.866 226.311 194.004 223.395 191.348L220.701 194.304ZM223.603 202.543C223.603 206.761 221.979 209.903 218.69 212.2L220.981 215.48C225.382 212.405 227.603 208.016 227.603 202.543H223.603ZM218.695 212.197C215.326 214.537 210.86 215.79 205.142 215.79V219.79C211.432 219.79 216.762 218.41 220.977 215.483L218.695 212.197Z" fill="white"/>
<g filter="url(#filter1_d)">
<path d="M272 102H192C179.85 102 170 92.1503 170 80V0L272 102Z" fill="url(#paint2_linear)"/>
</g>
</g>
<defs>
<filter id="filter0_f" x="9" y="110" width="256" height="162" filterUnits="userSpaceOnUse" color-interpolation-filters="sRGB">
<feFlood flood-opacity="0" result="BackgroundImageFix"/>
<feBlend mode="normal" in="SourceGraphic" in2="BackgroundImageFix" result="shape"/>
<feGaussianBlur stdDeviation="19.5" result="effect1_foregroundBlur"/>
</filter>
<filter id="filter1_d" x="147" y="-24" width="152" height="152" filterUnits="userSpaceOnUse" color-interpolation-filters="sRGB">
<feFlood flood-opacity="0" result="BackgroundImageFix"/>
<feColorMatrix in="SourceAlpha" type="matrix" values="0 0 0 0 0 0 0 0 0 0 0 0 0 0 0 0 0 0 127 0" result="hardAlpha"/>
<feOffset dx="2" dy="1"/>
<feGaussianBlur stdDeviation="12.5"/>
<feColorMatrix type="matrix" values="0 0 0 0 0 0 0 0 0 0 0 0 0 0 0 0 0 0 0.33 0"/>
<feBlend mode="normal" in2="BackgroundImageFix" result="effect1_dropShadow"/>
<feBlend mode="normal" in="SourceGraphic" in2="effect1_dropShadow" result="shape"/>
</filter>
<linearGradient id="paint0_linear" x1="136" y1="0" x2="136" y2="308" gradientUnits="userSpaceOnUse">
<stop stop-color="#FF7979"/>
<stop offset="1" stop-color="#E85555"/>
</linearGradient>
<linearGradient id="paint1_linear" x1="136" y1="0" x2="136" y2="308" gradientUnits="userSpaceOnUse">
<stop stop-color="#7CA9FF"/>
<stop offset="1" stop-color="#4377DC"/>
</linearGradient>
<linearGradient id="paint2_linear" x1="221" y1="0" x2="221" y2="102" gradientUnits="userSpaceOnUse">
<stop stop-color="#4B7BF7"/>
<stop offset="1" stop-color="#1A4DD1"/>
</linearGradient>
</defs>
</svg>
