<svg width="272" height="308" viewBox="0 0 272 308" fill="none" xmlns="http://www.w3.org/2000/svg">
<rect width="272" height="308" fill="#E5E5E5"/>
<mask id="mask0" style="mask-type:alpha" maskUnits="userSpaceOnUse" x="0" y="0" width="272" height="308">
<path d="M250 308H22C9.84974 308 0 298.15 0 286V22C0 9.84974 9.84974 0 22 0H170L272 102V286C272 298.15 262.15 308 250 308Z" fill="url(#paint0_linear)"/>
</mask>
<g mask="url(#mask0)">
<path d="M250 308H22C9.84974 308 0 298.15 0 286V22C0 9.84974 9.84974 0 22 0H170L272 102V286C272 298.15 262.15 308 250 308Z" fill="url(#paint1_linear)"/>
<g opacity="0.2" filter="url(#filter0_f)">
<rect x="48" y="149" width="178" height="84" fill="#780AAF" style="mix-blend-mode:darken"/>
</g>
<path d="M52.6958 217.395C51.6951 217.395 50.8525 217.053 50.1678 216.368C49.4831 215.683 49.1408 214.841 49.1408 213.84V166.677C49.1408 165.255 49.6411 164.044 50.6418 163.043C51.6425 161.99 52.8538 161.463 54.2758 161.463H56.8828C57.9361 161.463 58.8841 161.779 59.7268 162.411C60.6221 163.043 61.2805 163.833 61.7018 164.781L79.6348 209.495L97.5678 164.781C97.9892 163.833 98.6212 163.043 99.4638 162.411C100.359 161.779 101.333 161.463 102.387 161.463H104.994C106.416 161.463 107.627 161.99 108.628 163.043C109.628 164.044 110.129 165.255 110.129 166.677V213.84C110.129 214.841 109.786 215.683 109.102 216.368C108.417 217.053 107.574 217.395 106.574 217.395C105.573 217.395 104.704 217.053 103.967 216.368C103.282 215.683 102.94 214.841 102.94 213.84V168.968L84.6908 214.077C84.2695 215.078 83.5848 215.894 82.6368 216.526C81.7415 217.105 80.7408 217.395 79.6348 217.395C78.5288 217.395 77.5018 217.105 76.5538 216.526C75.6585 215.894 75.0001 215.078 74.5788 214.077L56.3298 168.968V213.84C56.3298 214.841 55.9611 215.683 55.2238 216.368C54.5391 217.053 53.6965 217.395 52.6958 217.395ZM134.526 217.395C133.525 217.395 132.682 217.053 131.998 216.368C131.313 215.683 130.971 214.841 130.971 213.84V165.492C130.971 164.491 131.313 163.649 131.998 162.964C132.682 162.227 133.525 161.858 134.526 161.858H152.538C157.541 161.858 161.623 162.701 164.783 164.386C167.943 166.071 170.207 168.231 171.577 170.864C172.946 173.497 173.631 176.341 173.631 179.396C173.631 182.451 172.946 185.295 171.577 187.928C170.207 190.561 167.943 192.721 164.783 194.406C161.623 196.091 157.541 196.934 152.538 196.934H138.16V213.84C138.16 214.841 137.791 215.683 137.054 216.368C136.369 217.053 135.526 217.395 134.526 217.395ZM151.827 190.14C157.199 190.14 160.964 189.113 163.124 187.059C165.336 185.005 166.442 182.451 166.442 179.396C166.442 176.341 165.336 173.787 163.124 171.733C160.964 169.679 157.199 168.652 151.827 168.652H138.16V190.14H151.827ZM216.123 217.395C215.122 217.395 214.279 217.053 213.595 216.368C212.91 215.683 212.568 214.841 212.568 213.84V203.096H188.473C187.209 203.096 186.129 202.675 185.234 201.832C184.338 200.937 183.891 199.857 183.891 198.593V197.882C183.891 196.776 184.207 195.828 184.839 195.038L209.645 163.359C210.066 162.78 210.619 162.332 211.304 162.016C212.041 161.647 212.805 161.463 213.595 161.463H215.175C216.544 161.463 217.65 161.911 218.493 162.806C219.335 163.649 219.757 164.728 219.757 166.045V196.697H225.761C226.656 196.697 227.42 197.013 228.052 197.645C228.684 198.277 229 199.041 229 199.936C229 200.831 228.684 201.595 228.052 202.227C227.42 202.806 226.656 203.096 225.761 203.096H219.757V213.84C219.757 214.841 219.388 215.683 218.651 216.368C217.966 217.053 217.123 217.395 216.123 217.395ZM191.554 196.697H212.568V169.6L191.554 196.697Z" fill="white"/>
<path d="M50.1678 216.368L51.582 214.954L51.582 214.954L50.1678 216.368ZM50.6418 163.043L52.056 164.457L52.0742 164.439L52.0918 164.42L50.6418 163.043ZM59.7268 162.411L58.5268 164.011L58.5499 164.028L58.5734 164.045L59.7268 162.411ZM61.7018 164.781L63.5581 164.037L63.5444 164.002L63.5294 163.969L61.7018 164.781ZM79.6348 209.495L77.7785 210.239L79.6348 214.868L81.4911 210.239L79.6348 209.495ZM97.5678 164.781L95.7402 163.969L95.7252 164.002L95.7115 164.037L97.5678 164.781ZM99.4638 162.411L98.3105 160.777L98.2869 160.794L98.2638 160.811L99.4638 162.411ZM108.628 163.043L107.178 164.42L107.195 164.439L107.214 164.457L108.628 163.043ZM109.102 216.368L110.516 217.782L110.516 217.782L109.102 216.368ZM103.967 216.368L102.553 217.782L102.579 217.808L102.606 217.834L103.967 216.368ZM102.94 168.968H104.94L101.086 168.218L102.94 168.968ZM84.6908 214.077L86.5341 214.853L86.5396 214.84L86.5448 214.827L84.6908 214.077ZM82.6368 216.526L83.7233 218.205L83.7348 218.198L83.7462 218.19L82.6368 216.526ZM76.5538 216.526L75.4005 218.16L75.4545 218.198L75.5109 218.233L76.5538 216.526ZM74.5788 214.077L72.7248 214.827L72.7301 214.84L72.7355 214.853L74.5788 214.077ZM56.3298 168.968L58.1838 168.218L54.3298 168.968H56.3298ZM55.2238 216.368L53.8629 214.902L53.8358 214.928L53.8096 214.954L55.2238 216.368ZM52.6958 215.395C52.2057 215.395 51.8778 215.25 51.582 214.954L48.7536 217.782C49.8271 218.856 51.1846 219.395 52.6958 219.395V215.395ZM51.582 214.954C51.2862 214.658 51.1408 214.33 51.1408 213.84H47.1408C47.1408 215.351 47.6801 216.709 48.7536 217.782L51.582 214.954ZM51.1408 213.84V166.677H47.1408V213.84H51.1408ZM51.1408 166.677C51.1408 165.783 51.4325 165.081 52.056 164.457L49.2276 161.629C47.8498 163.007 47.1408 164.727 47.1408 166.677H51.1408ZM52.0918 164.42C52.7242 163.755 53.4153 163.463 54.2758 163.463V159.463C52.2923 159.463 50.5608 160.224 49.1918 161.665L52.0918 164.42ZM54.2758 163.463H56.8828V159.463H54.2758V163.463ZM56.8828 163.463C57.5034 163.463 58.0303 163.639 58.5268 164.011L60.9268 160.811C59.738 159.919 58.3689 159.463 56.8828 159.463V163.463ZM58.5734 164.045C59.1913 164.481 59.6078 164.994 59.8742 165.593L63.5294 163.969C62.9532 162.672 62.0529 161.605 60.8802 160.777L58.5734 164.045ZM59.8455 165.525L77.7785 210.239L81.4911 208.751L63.5581 164.037L59.8455 165.525ZM81.4911 210.239L99.4241 165.525L95.7115 164.037L77.7785 208.751L81.4911 210.239ZM99.3954 165.593C99.676 164.962 100.09 164.442 100.664 164.011L98.2638 160.811C97.1526 161.644 96.3023 162.704 95.7402 163.969L99.3954 165.593ZM100.617 164.045C101.19 163.641 101.764 163.463 102.387 163.463V159.463C100.903 159.463 99.5287 159.917 98.3105 160.777L100.617 164.045ZM102.387 163.463H104.994V159.463H102.387V163.463ZM104.994 163.463C105.854 163.463 106.545 163.755 107.178 164.42L110.078 161.665C108.709 160.224 106.977 159.463 104.994 159.463V163.463ZM107.214 164.457C107.837 165.081 108.129 165.783 108.129 166.677H112.129C112.129 164.727 111.42 163.007 110.042 161.629L107.214 164.457ZM108.129 166.677V213.84H112.129V166.677H108.129ZM108.129 213.84C108.129 214.33 107.983 214.658 107.688 214.954L110.516 217.782C111.59 216.709 112.129 215.351 112.129 213.84H108.129ZM107.688 214.954C107.392 215.25 107.064 215.395 106.574 215.395V219.395C108.085 219.395 109.442 218.856 110.516 217.782L107.688 214.954ZM106.574 215.395C106.081 215.395 105.697 215.246 105.328 214.902L102.606 217.834C103.711 218.86 105.065 219.395 106.574 219.395V215.395ZM105.381 214.954C105.085 214.658 104.94 214.33 104.94 213.84H100.94C100.94 215.351 101.479 216.709 102.553 217.782L105.381 214.954ZM104.94 213.84V168.968H100.94V213.84H104.94ZM101.086 168.218L82.8368 213.327L86.5448 214.827L104.794 169.718L101.086 168.218ZM82.8475 213.301C82.5862 213.922 82.166 214.436 81.5274 214.862L83.7462 218.19C85.0036 217.352 85.9528 216.234 86.5341 214.853L82.8475 213.301ZM81.5503 214.847C80.9911 215.209 80.3704 215.395 79.6348 215.395V219.395C81.1112 219.395 82.4919 219.002 83.7233 218.205L81.5503 214.847ZM79.6348 215.395C78.8986 215.395 78.2322 215.208 77.5967 214.819L75.5109 218.233C76.7714 219.003 78.159 219.395 79.6348 219.395V215.395ZM77.7072 214.892C77.1145 214.474 76.6968 213.953 76.4221 213.301L72.7355 214.853C73.3035 216.202 74.2025 217.314 75.4005 218.16L77.7072 214.892ZM76.4328 213.327L58.1838 168.218L54.4758 169.718L72.7248 214.827L76.4328 213.327ZM54.3298 168.968V213.84H58.3298V168.968H54.3298ZM54.3298 213.84C54.3298 214.281 54.1953 214.594 53.8629 214.902L56.5847 217.834C57.727 216.773 58.3298 215.4 58.3298 213.84H54.3298ZM53.8096 214.954C53.5138 215.25 53.1859 215.395 52.6958 215.395V219.395C54.2071 219.395 55.5645 218.856 56.638 217.782L53.8096 214.954ZM131.998 216.368L133.412 214.954L133.412 214.954L131.998 216.368ZM131.998 162.964L133.412 164.378L133.438 164.352L133.463 164.325L131.998 162.964ZM164.783 164.386L165.724 162.621L164.783 164.386ZM171.577 170.864L169.802 171.787L169.802 171.787L171.577 170.864ZM171.577 187.928L169.802 187.005L169.802 187.005L171.577 187.928ZM164.783 194.406L165.724 196.171L164.783 194.406ZM138.16 196.934V194.934H136.16V196.934H138.16ZM137.054 216.368L135.693 214.902L135.666 214.928L135.639 214.954L137.054 216.368ZM163.124 187.059L161.763 185.593L161.754 185.602L161.745 185.61L163.124 187.059ZM163.124 171.733L161.745 173.182L161.754 173.19L161.763 173.199L163.124 171.733ZM138.16 168.652V166.652H136.16V168.652H138.16ZM138.16 190.14H136.16V192.14H138.16V190.14ZM134.526 215.395C134.036 215.395 133.708 215.25 133.412 214.954L130.583 217.782C131.657 218.856 133.014 219.395 134.526 219.395V215.395ZM133.412 214.954C133.116 214.658 132.971 214.33 132.971 213.84H128.971C128.971 215.351 129.51 216.709 130.583 217.782L133.412 214.954ZM132.971 213.84V165.492H128.971V213.84H132.971ZM132.971 165.492C132.971 165.002 133.116 164.674 133.412 164.378L130.583 161.55C129.51 162.623 128.971 163.981 128.971 165.492H132.971ZM133.463 164.325C133.772 163.993 134.085 163.858 134.526 163.858V159.858C132.965 159.858 131.593 160.461 130.532 161.603L133.463 164.325ZM134.526 163.858H152.538V159.858H134.526V163.858ZM152.538 163.858C157.336 163.858 161.063 164.669 163.841 166.151L165.724 162.621C162.182 160.732 157.746 159.858 152.538 159.858V163.858ZM163.841 166.151C166.72 167.686 168.655 169.58 169.802 171.787L173.351 169.941C171.76 166.881 169.165 164.457 165.724 162.621L163.841 166.151ZM169.802 171.787C171.019 174.127 171.631 176.653 171.631 179.396H175.631C175.631 176.03 174.873 172.868 173.351 169.941L169.802 171.787ZM171.631 179.396C171.631 182.139 171.019 184.665 169.802 187.005L173.351 188.851C174.873 185.924 175.631 182.762 175.631 179.396H171.631ZM169.802 187.005C168.655 189.212 166.72 191.106 163.841 192.641L165.724 196.171C169.165 194.335 171.76 191.911 173.351 188.851L169.802 187.005ZM163.841 192.641C161.063 194.123 157.336 194.934 152.538 194.934V198.934C157.746 198.934 162.182 198.06 165.724 196.171L163.841 192.641ZM152.538 194.934H138.16V198.934H152.538V194.934ZM136.16 196.934V213.84H140.16V196.934H136.16ZM136.16 213.84C136.16 214.281 136.025 214.594 135.693 214.902L138.415 217.834C139.557 216.773 140.16 215.4 140.16 213.84H136.16ZM135.639 214.954C135.344 215.25 135.016 215.395 134.526 215.395V219.395C136.037 219.395 137.394 218.856 138.468 217.782L135.639 214.954ZM151.827 192.14C157.339 192.14 161.768 191.109 164.502 188.508L161.745 185.61C160.16 187.117 157.059 188.14 151.827 188.14V192.14ZM164.485 188.525C167.11 186.087 168.442 182.999 168.442 179.396H164.442C164.442 181.902 163.562 183.923 161.763 185.593L164.485 188.525ZM168.442 179.396C168.442 175.793 167.11 172.705 164.485 170.267L161.763 173.199C163.562 174.869 164.442 176.89 164.442 179.396H168.442ZM164.502 170.284C161.768 167.683 157.339 166.652 151.827 166.652V170.652C157.059 170.652 160.16 171.675 161.745 173.182L164.502 170.284ZM151.827 166.652H138.16V170.652H151.827V166.652ZM136.16 168.652V190.14H140.16V168.652H136.16ZM138.16 192.14H151.827V188.14H138.16V192.14ZM213.595 216.368L212.181 217.782L212.181 217.782L213.595 216.368ZM212.568 203.096H214.568V201.096H212.568V203.096ZM185.234 201.832L183.82 203.246L183.841 203.268L183.863 203.288L185.234 201.832ZM184.839 195.038L186.4 196.287L186.407 196.279L186.413 196.271L184.839 195.038ZM209.645 163.359L211.219 164.592L211.241 164.564L211.262 164.535L209.645 163.359ZM211.304 162.016L212.142 163.832L212.17 163.819L212.198 163.805L211.304 162.016ZM218.493 162.806L217.036 164.177L217.057 164.199L217.079 164.22L218.493 162.806ZM219.757 196.697H217.757V198.697H219.757V196.697ZM228.052 197.645L229.466 196.231L229.466 196.231L228.052 197.645ZM228.052 202.227L229.403 203.701L229.435 203.672L229.466 203.641L228.052 202.227ZM219.757 203.096V201.096H217.757V203.096H219.757ZM218.651 216.368L217.29 214.902L217.263 214.928L217.237 214.954L218.651 216.368ZM191.554 196.697L189.973 195.471L187.472 198.697H191.554V196.697ZM212.568 196.697V198.697H214.568V196.697H212.568ZM212.568 169.6H214.568V163.757L210.987 168.374L212.568 169.6ZM216.123 215.395C215.633 215.395 215.305 215.25 215.009 214.954L212.181 217.782C213.254 218.856 214.611 219.395 216.123 219.395V215.395ZM215.009 214.954C214.713 214.658 214.568 214.33 214.568 213.84H210.568C210.568 215.351 211.107 216.709 212.181 217.782L215.009 214.954ZM214.568 213.84V203.096H210.568V213.84H214.568ZM212.568 201.096H188.473V205.096H212.568V201.096ZM188.473 201.096C187.702 201.096 187.117 200.858 186.604 200.376L183.863 203.288C185.141 204.491 186.715 205.096 188.473 205.096V201.096ZM186.648 200.418C186.127 199.897 185.891 199.326 185.891 198.593H181.891C181.891 200.388 182.55 201.977 183.82 203.246L186.648 200.418ZM185.891 198.593V197.882H181.891V198.593H185.891ZM185.891 197.882C185.891 197.185 186.079 196.689 186.4 196.287L183.277 193.789C182.334 194.967 181.891 196.367 181.891 197.882H185.891ZM186.413 196.271L211.219 164.592L208.07 162.126L183.264 193.805L186.413 196.271ZM211.262 164.535C211.472 164.247 211.75 164.013 212.142 163.832L210.466 160.2C209.488 160.651 208.66 161.312 208.027 162.183L211.262 164.535ZM212.198 163.805C212.67 163.569 213.129 163.463 213.595 163.463V159.463C212.481 159.463 211.412 159.726 210.409 160.227L212.198 163.805ZM213.595 163.463H215.175V159.463H213.595V163.463ZM215.175 163.463C216.062 163.463 216.617 163.731 217.036 164.177L219.949 161.435C218.683 160.091 217.026 159.463 215.175 159.463V163.463ZM217.079 164.22C217.505 164.647 217.757 165.198 217.757 166.045H221.757C221.757 164.259 221.166 162.651 219.907 161.392L217.079 164.22ZM217.757 166.045V196.697H221.757V166.045H217.757ZM219.757 198.697H225.761V194.697H219.757V198.697ZM225.761 198.697C226.127 198.697 226.381 198.803 226.638 199.059L229.466 196.231C228.458 195.223 227.185 194.697 225.761 194.697V198.697ZM226.638 199.059C226.894 199.315 227 199.57 227 199.936H231C231 198.511 230.474 197.239 229.466 196.231L226.638 199.059ZM227 199.936C227 200.302 226.894 200.557 226.638 200.813L229.466 203.641C230.474 202.633 231 201.361 231 199.936H227ZM226.7 200.753C226.455 200.978 226.18 201.096 225.761 201.096V205.096C227.132 205.096 228.385 204.635 229.403 203.701L226.7 200.753ZM225.761 201.096H219.757V205.096H225.761V201.096ZM217.757 203.096V213.84H221.757V203.096H217.757ZM217.757 213.84C217.757 214.281 217.622 214.594 217.29 214.902L220.012 217.834C221.154 216.773 221.757 215.4 221.757 213.84H217.757ZM217.237 214.954C216.941 215.25 216.613 215.395 216.123 215.395V219.395C217.634 219.395 218.991 218.856 220.065 217.782L217.237 214.954ZM191.554 198.697H212.568V194.697H191.554V198.697ZM214.568 196.697V169.6H210.568V196.697H214.568ZM210.987 168.374L189.973 195.471L193.134 197.923L214.148 170.826L210.987 168.374Z" fill="white"/>
<g filter="url(#filter1_d)">
<path d="M272 102H192C179.85 102 170 92.1503 170 80V0L272 102Z" fill="url(#paint2_linear)"/>
</g>
</g>
<defs>
<filter id="filter0_f" x="9" y="110" width="256" height="162" filterUnits="userSpaceOnUse" color-interpolation-filters="sRGB">
<feFlood flood-opacity="0" result="BackgroundImageFix"/>
<feBlend mode="normal" in="SourceGraphic" in2="BackgroundImageFix" result="shape"/>
<feGaussianBlur stdDeviation="19.5" result="effect1_foregroundBlur"/>
</filter>
<filter id="filter1_d" x="147" y="-24" width="152" height="152" filterUnits="userSpaceOnUse" color-interpolation-filters="sRGB">
<feFlood flood-opacity="0" result="BackgroundImageFix"/>
<feColorMatrix in="SourceAlpha" type="matrix" values="0 0 0 0 0 0 0 0 0 0 0 0 0 0 0 0 0 0 127 0" result="hardAlpha"/>
<feOffset dx="2" dy="1"/>
<feGaussianBlur stdDeviation="12.5"/>
<feColorMatrix type="matrix" values="0 0 0 0 0 0 0 0 0 0 0 0 0 0 0 0 0 0 0.33 0"/>
<feBlend mode="normal" in2="BackgroundImageFix" result="effect1_dropShadow"/>
<feBlend mode="normal" in="SourceGraphic" in2="effect1_dropShadow" result="shape"/>
</filter>
<linearGradient id="paint0_linear" x1="136" y1="0" x2="136" y2="308" gradientUnits="userSpaceOnUse">
<stop stop-color="#FF7979"/>
<stop offset="1" stop-color="#E85555"/>
</linearGradient>
<linearGradient id="paint1_linear" x1="136" y1="0" x2="136" y2="308" gradientUnits="userSpaceOnUse">
<stop stop-color="#CB74F4"/>
<stop offset="0.942892" stop-color="#A849F3"/>
</linearGradient>
<linearGradient id="paint2_linear" x1="221" y1="0" x2="221" y2="102" gradientUnits="userSpaceOnUse">
<stop stop-color="#B051E0"/>
<stop offset="1" stop-color="#952BCB"/>
</linearGradient>
</defs>
</svg>
