<svg width="272" height="308" viewBox="0 0 272 308" fill="none" xmlns="http://www.w3.org/2000/svg">
<mask id="mask0" style="mask-type:alpha" maskUnits="userSpaceOnUse" x="0" y="0" width="272" height="308">
<path d="M250 308H22C9.84974 308 0 298.15 0 286V22C0 9.84974 9.84974 0 22 0H170L272 102V286C272 298.15 262.15 308 250 308Z" fill="url(#paint0_linear)"/>
</mask>
<g mask="url(#mask0)">
<path d="M250 308H22C9.84974 308 0 298.15 0 286V22C0 9.84974 9.84974 0 22 0H170L272 102V286C272 298.15 262.15 308 250 308Z" fill="url(#paint1_linear)"/>
<g opacity="0.23" filter="url(#filter0_f)">
<rect x="15" y="149" width="244" height="84" fill="#E32E06" style="mix-blend-mode:darken"/>
</g>
<path d="M64.5396 217.395C63.5389 217.395 62.6962 217.053 62.0116 216.368C61.3269 215.683 60.9846 214.841 60.9846 213.84V165.492C60.9846 164.491 61.3269 163.649 62.0116 162.964C62.6962 162.227 63.5389 161.858 64.5396 161.858H82.5516C87.5549 161.858 91.6366 162.701 94.7966 164.386C97.9566 166.071 100.221 168.231 101.591 170.864C102.96 173.497 103.645 176.341 103.645 179.396C103.645 182.451 102.96 185.295 101.591 187.928C100.221 190.561 97.9566 192.721 94.7966 194.406C91.6366 196.091 87.5549 196.934 82.5516 196.934H68.1736V213.84C68.1736 214.841 67.8049 215.683 67.0676 216.368C66.3829 217.053 65.5402 217.395 64.5396 217.395ZM81.8406 190.14C87.2126 190.14 90.9782 189.113 93.1376 187.059C95.3496 185.005 96.4556 182.451 96.4556 179.396C96.4556 176.341 95.3496 173.787 93.1376 171.733C90.9782 169.679 87.2126 168.652 81.8406 168.652H68.1736V190.14H81.8406ZM123.148 217.395C122.147 217.395 121.304 217.053 120.62 216.368C119.935 215.683 119.593 214.841 119.593 213.84V165.492C119.593 164.491 119.935 163.649 120.62 162.964C121.304 162.227 122.147 161.858 123.148 161.858H141.16C146.163 161.858 150.245 162.701 153.405 164.386C156.565 166.071 158.829 168.231 160.199 170.864C161.568 173.497 162.253 176.341 162.253 179.396C162.253 182.451 161.568 185.295 160.199 187.928C158.829 190.561 156.565 192.721 153.405 194.406C150.245 196.091 146.163 196.934 141.16 196.934H126.782V213.84C126.782 214.841 126.413 215.683 125.676 216.368C124.991 217.053 124.148 217.395 123.148 217.395ZM140.449 190.14C145.821 190.14 149.586 189.113 151.746 187.059C153.958 185.005 155.064 182.451 155.064 179.396C155.064 176.341 153.958 173.787 151.746 171.733C149.586 169.679 145.821 168.652 140.449 168.652H126.782V190.14H140.449ZM194.554 217.395C193.553 217.395 192.71 217.053 192.026 216.368C191.341 215.683 190.999 214.841 190.999 213.84V168.573H174.883C173.935 168.573 173.145 168.257 172.513 167.625C171.881 166.993 171.565 166.203 171.565 165.255C171.565 164.307 171.881 163.517 172.513 162.885C173.145 162.2 173.935 161.858 174.883 161.858H214.225C215.173 161.858 215.963 162.2 216.595 162.885C217.279 163.517 217.622 164.307 217.622 165.255C217.622 166.203 217.279 166.993 216.595 167.625C215.963 168.257 215.173 168.573 214.225 168.573H198.188V213.84C198.188 214.841 197.819 215.683 197.082 216.368C196.397 217.053 195.554 217.395 194.554 217.395Z" fill="white"/>
<path d="M62.0116 216.368L63.4258 214.954H63.4258L62.0116 216.368ZM62.0116 162.964L63.4258 164.378L63.452 164.352L63.4772 164.325L62.0116 162.964ZM94.7966 164.386L95.7377 162.621L94.7966 164.386ZM101.591 170.864L99.8161 171.787L101.591 170.864ZM101.591 187.928L99.8161 187.005L99.8161 187.005L101.591 187.928ZM94.7966 194.406L95.7377 196.171L94.7966 194.406ZM68.1736 196.934V194.934H66.1736V196.934H68.1736ZM67.0676 216.368L65.7067 214.902L65.6795 214.928L65.6534 214.954L67.0676 216.368ZM93.1376 187.059L91.7767 185.593L91.7678 185.602L91.7591 185.61L93.1376 187.059ZM93.1376 171.733L91.7591 173.182L91.7678 173.19L91.7767 173.199L93.1376 171.733ZM68.1736 168.652V166.652H66.1736V168.652H68.1736ZM68.1736 190.14H66.1736V192.14H68.1736V190.14ZM64.5396 215.395C64.0495 215.395 63.7216 215.25 63.4258 214.954L60.5974 217.782C61.6709 218.856 63.0283 219.395 64.5396 219.395V215.395ZM63.4258 214.954C63.13 214.658 62.9846 214.33 62.9846 213.84H58.9846C58.9846 215.351 59.5238 216.709 60.5974 217.782L63.4258 214.954ZM62.9846 213.84V165.492H58.9846V213.84H62.9846ZM62.9846 165.492C62.9846 165.002 63.13 164.674 63.4258 164.378L60.5974 161.55C59.5238 162.623 58.9846 163.981 58.9846 165.492H62.9846ZM63.4772 164.325C63.7858 163.993 64.0985 163.858 64.5396 163.858V159.858C62.9793 159.858 61.6067 160.461 60.546 161.603L63.4772 164.325ZM64.5396 163.858H82.5516V159.858H64.5396V163.858ZM82.5516 163.858C87.3498 163.858 91.0771 164.669 93.8554 166.151L95.7377 162.621C92.196 160.732 87.76 159.858 82.5516 159.858V163.858ZM93.8554 166.151C96.7338 167.686 98.6688 169.58 99.8161 171.787L103.365 169.941C101.774 166.881 99.1793 164.457 95.7377 162.621L93.8554 166.151ZM99.8161 171.787C101.033 174.127 101.645 176.653 101.645 179.396H105.645C105.645 176.03 104.887 172.868 103.365 169.941L99.8161 171.787ZM101.645 179.396C101.645 182.139 101.033 184.665 99.8161 187.005L103.365 188.851C104.887 185.924 105.645 182.762 105.645 179.396H101.645ZM99.8161 187.005C98.6688 189.212 96.7338 191.106 93.8554 192.641L95.7377 196.171C99.1793 194.335 101.774 191.911 103.365 188.851L99.8161 187.005ZM93.8554 192.641C91.0771 194.123 87.3498 194.934 82.5516 194.934V198.934C87.76 198.934 92.196 198.06 95.7377 196.171L93.8554 192.641ZM82.5516 194.934H68.1736V198.934H82.5516V194.934ZM66.1736 196.934V213.84H70.1736V196.934H66.1736ZM66.1736 213.84C66.1736 214.281 66.039 214.594 65.7067 214.902L68.4285 217.834C69.5708 216.773 70.1736 215.4 70.1736 213.84H66.1736ZM65.6534 214.954C65.3576 215.25 65.0296 215.395 64.5396 215.395V219.395C66.0508 219.395 67.4082 218.856 68.4818 217.782L65.6534 214.954ZM81.8406 192.14C87.3526 192.14 91.782 191.109 94.516 188.508L91.7591 185.61C90.1744 187.117 87.0726 188.14 81.8406 188.14V192.14ZM94.4985 188.525C97.1235 186.087 98.4556 182.999 98.4556 179.396H94.4556C94.4556 181.902 93.5756 183.923 91.7767 185.593L94.4985 188.525ZM98.4556 179.396C98.4556 175.793 97.1235 172.705 94.4985 170.267L91.7767 173.199C93.5756 174.869 94.4556 176.89 94.4556 179.396H98.4556ZM94.516 170.284C91.782 167.683 87.3526 166.652 81.8406 166.652V170.652C87.0726 170.652 90.1744 171.675 91.7591 173.182L94.516 170.284ZM81.8406 166.652H68.1736V170.652H81.8406V166.652ZM66.1736 168.652V190.14H70.1736V168.652H66.1736ZM68.1736 192.14H81.8406V188.14H68.1736V192.14ZM120.62 216.368L122.034 214.954L120.62 216.368ZM120.62 162.964L122.034 164.378L122.06 164.352L122.085 164.325L120.62 162.964ZM153.405 164.386L154.346 162.621L153.405 164.386ZM160.199 170.864L158.424 171.787L160.199 170.864ZM160.199 187.928L158.424 187.005V187.005L160.199 187.928ZM153.405 194.406L154.346 196.171L153.405 194.406ZM126.782 196.934V194.934H124.782V196.934H126.782ZM125.676 216.368L124.315 214.902L124.288 214.928L124.261 214.954L125.676 216.368ZM151.746 187.059L150.385 185.593L150.376 185.602L150.367 185.61L151.746 187.059ZM151.746 171.733L150.367 173.182L150.376 173.19L150.385 173.199L151.746 171.733ZM126.782 168.652V166.652H124.782V168.652H126.782ZM126.782 190.14H124.782V192.14H126.782V190.14ZM123.148 215.395C122.658 215.395 122.33 215.25 122.034 214.954L119.205 217.782C120.279 218.856 121.636 219.395 123.148 219.395V215.395ZM122.034 214.954C121.738 214.658 121.593 214.33 121.593 213.84H117.593C117.593 215.351 118.132 216.709 119.205 217.782L122.034 214.954ZM121.593 213.84V165.492H117.593V213.84H121.593ZM121.593 165.492C121.593 165.002 121.738 164.674 122.034 164.378L119.205 161.55C118.132 162.623 117.593 163.981 117.593 165.492H121.593ZM122.085 164.325C122.394 163.993 122.707 163.858 123.148 163.858V159.858C121.587 159.858 120.215 160.461 119.154 161.603L122.085 164.325ZM123.148 163.858H141.16V159.858H123.148V163.858ZM141.16 163.858C145.958 163.858 149.685 164.669 152.464 166.151L154.346 162.621C150.804 160.732 146.368 159.858 141.16 159.858V163.858ZM152.464 166.151C155.342 167.686 157.277 169.58 158.424 171.787L161.973 169.941C160.382 166.881 157.787 164.457 154.346 162.621L152.464 166.151ZM158.424 171.787C159.641 174.127 160.253 176.653 160.253 179.396H164.253C164.253 176.03 163.495 172.868 161.973 169.941L158.424 171.787ZM160.253 179.396C160.253 182.139 159.641 184.665 158.424 187.005L161.973 188.851C163.495 185.924 164.253 182.762 164.253 179.396H160.253ZM158.424 187.005C157.277 189.212 155.342 191.106 152.464 192.641L154.346 196.171C157.787 194.335 160.382 191.911 161.973 188.851L158.424 187.005ZM152.464 192.641C149.685 194.123 145.958 194.934 141.16 194.934V198.934C146.368 198.934 150.804 198.06 154.346 196.171L152.464 192.641ZM141.16 194.934H126.782V198.934H141.16V194.934ZM124.782 196.934V213.84H128.782V196.934H124.782ZM124.782 213.84C124.782 214.281 124.647 214.594 124.315 214.902L127.037 217.834C128.179 216.773 128.782 215.4 128.782 213.84H124.782ZM124.261 214.954C123.966 215.25 123.638 215.395 123.148 215.395V219.395C124.659 219.395 126.016 218.856 127.09 217.782L124.261 214.954ZM140.449 192.14C145.961 192.14 150.39 191.109 153.124 188.508L150.367 185.61C148.783 187.117 145.681 188.14 140.449 188.14V192.14ZM153.107 188.525C155.732 186.087 157.064 182.999 157.064 179.396H153.064C153.064 181.902 152.184 183.923 150.385 185.593L153.107 188.525ZM157.064 179.396C157.064 175.793 155.732 172.705 153.107 170.267L150.385 173.199C152.184 174.869 153.064 176.89 153.064 179.396H157.064ZM153.124 170.284C150.39 167.683 145.961 166.652 140.449 166.652V170.652C145.681 170.652 148.783 171.675 150.367 173.182L153.124 170.284ZM140.449 166.652H126.782V170.652H140.449V166.652ZM124.782 168.652V190.14H128.782V168.652H124.782ZM126.782 192.14H140.449V188.14H126.782V192.14ZM192.026 216.368L190.612 217.782L192.026 216.368ZM190.999 168.573H192.999V166.573H190.999V168.573ZM172.513 167.625L171.099 169.039L171.099 169.039L172.513 167.625ZM172.513 162.885L173.927 164.299L173.955 164.271L173.982 164.242L172.513 162.885ZM216.595 162.885L215.125 164.242L215.179 164.3L215.238 164.355L216.595 162.885ZM216.595 167.625L215.238 166.155L215.209 166.183L215.181 166.211L216.595 167.625ZM198.188 168.573V166.573H196.188V168.573H198.188ZM197.082 216.368L195.721 214.902L195.694 214.928L195.668 214.954L197.082 216.368ZM194.554 215.395C194.064 215.395 193.736 215.25 193.44 214.954L190.612 217.782C191.685 218.856 193.043 219.395 194.554 219.395V215.395ZM193.44 214.954C193.144 214.658 192.999 214.33 192.999 213.84H188.999C188.999 215.351 189.538 216.709 190.612 217.782L193.44 214.954ZM192.999 213.84V168.573H188.999V213.84H192.999ZM190.999 166.573H174.883V170.573H190.999V166.573ZM174.883 166.573C174.43 166.573 174.159 166.443 173.927 166.211L171.099 169.039C172.13 170.071 173.44 170.573 174.883 170.573V166.573ZM173.927 166.211C173.695 165.978 173.565 165.708 173.565 165.255H169.565C169.565 166.698 170.067 168.008 171.099 169.039L173.927 166.211ZM173.565 165.255C173.565 164.802 173.695 164.532 173.927 164.299L171.099 161.471C170.067 162.502 169.565 163.812 169.565 165.255H173.565ZM173.982 164.242C174.228 163.975 174.482 163.858 174.883 163.858V159.858C173.388 159.858 172.061 160.426 171.043 161.528L173.982 164.242ZM174.883 163.858H214.225V159.858H174.883V163.858ZM214.225 163.858C214.626 163.858 214.879 163.975 215.125 164.242L218.064 161.528C217.046 160.426 215.72 159.858 214.225 159.858V163.858ZM215.238 164.355C215.505 164.601 215.622 164.854 215.622 165.255H219.622C219.622 163.76 219.054 162.433 217.951 161.415L215.238 164.355ZM215.622 165.255C215.622 165.656 215.505 165.909 215.238 166.155L217.951 169.095C219.054 168.077 219.622 166.75 219.622 165.255H215.622ZM215.181 166.211C214.948 166.443 214.678 166.573 214.225 166.573V170.573C215.668 170.573 216.977 170.071 218.009 169.039L215.181 166.211ZM214.225 166.573H198.188V170.573H214.225V166.573ZM196.188 168.573V213.84H200.188V168.573H196.188ZM196.188 213.84C196.188 214.281 196.053 214.594 195.721 214.902L198.443 217.834C199.585 216.773 200.188 215.4 200.188 213.84H196.188ZM195.668 214.954C195.372 215.25 195.044 215.395 194.554 215.395V219.395C196.065 219.395 197.422 218.856 198.496 217.782L195.668 214.954Z" fill="white"/>
<g filter="url(#filter1_d)">
<path d="M272 102H192C179.85 102 170 92.1503 170 80V0L272 102Z" fill="url(#paint2_linear)"/>
</g>
</g>
<defs>
<filter id="filter0_f" x="-24" y="110" width="322" height="162" filterUnits="userSpaceOnUse" color-interpolation-filters="sRGB">
<feFlood flood-opacity="0" result="BackgroundImageFix"/>
<feBlend mode="normal" in="SourceGraphic" in2="BackgroundImageFix" result="shape"/>
<feGaussianBlur stdDeviation="19.5" result="effect1_foregroundBlur"/>
</filter>
<filter id="filter1_d" x="147" y="-24" width="152" height="152" filterUnits="userSpaceOnUse" color-interpolation-filters="sRGB">
<feFlood flood-opacity="0" result="BackgroundImageFix"/>
<feColorMatrix in="SourceAlpha" type="matrix" values="0 0 0 0 0 0 0 0 0 0 0 0 0 0 0 0 0 0 127 0" result="hardAlpha"/>
<feOffset dx="2" dy="1"/>
<feGaussianBlur stdDeviation="12.5"/>
<feColorMatrix type="matrix" values="0 0 0 0 0 0 0 0 0 0 0 0 0 0 0 0 0 0 0.33 0"/>
<feBlend mode="normal" in2="BackgroundImageFix" result="effect1_dropShadow"/>
<feBlend mode="normal" in="SourceGraphic" in2="effect1_dropShadow" result="shape"/>
</filter>
<linearGradient id="paint0_linear" x1="136" y1="0" x2="136" y2="308" gradientUnits="userSpaceOnUse">
<stop stop-color="#FF7979"/>
<stop offset="1" stop-color="#E85555"/>
</linearGradient>
<linearGradient id="paint1_linear" x1="136" y1="0" x2="136" y2="308" gradientUnits="userSpaceOnUse">
<stop stop-color="#FF8777"/>
<stop offset="1" stop-color="#F0695F"/>
</linearGradient>
<linearGradient id="paint2_linear" x1="221" y1="0" x2="221" y2="102" gradientUnits="userSpaceOnUse">
<stop stop-color="#DA5D4C"/>
<stop offset="1" stop-color="#E32900"/>
</linearGradient>
</defs>
</svg>
