<svg width="272" height="308" viewBox="0 0 272 308" fill="none" xmlns="http://www.w3.org/2000/svg">
<mask id="mask0" style="mask-type:alpha" maskUnits="userSpaceOnUse" x="0" y="0" width="272" height="308">
<path d="M250 308H22C9.84974 308 0 298.15 0 286V22C0 9.84974 9.84974 0 22 0H170L272 102V286C272 298.15 262.15 308 250 308Z" fill="url(#paint0_linear)"/>
</mask>
<g mask="url(#mask0)">
<path d="M250 308H22C9.84974 308 0 298.15 0 286V22C0 9.84974 9.84974 0 22 0H170L272 102V286C272 298.15 262.15 308 250 308Z" fill="url(#paint1_linear)"/>
<g filter="url(#filter0_f)">
<rect x="47" y="144" width="178" height="84" fill="#0F7D56" fill-opacity="0.27" style="mix-blend-mode:darken"/>
</g>
<path d="M76.7733 217C75.5093 217 74.4296 216.552 73.5343 215.657C72.639 214.762 72.1913 213.682 72.1913 212.418C72.1913 211.259 72.5073 210.285 73.1393 209.495L106.161 168.731H75.7463C74.7983 168.731 73.982 168.415 73.2973 167.783C72.6653 167.098 72.3493 166.282 72.3493 165.334C72.3493 164.386 72.6653 163.57 73.2973 162.885C73.982 162.2 74.7983 161.858 75.7463 161.858H110.032C111.507 161.858 112.666 162.332 113.508 163.28C114.404 164.228 114.851 165.387 114.851 166.756C114.851 167.283 114.72 167.836 114.456 168.415C114.246 168.994 113.956 169.495 113.587 169.916L80.9603 210.285H111.928C112.876 210.285 113.666 210.627 114.298 211.312C114.983 211.944 115.325 212.734 115.325 213.682C115.325 214.63 114.983 215.42 114.298 216.052C113.666 216.684 112.876 217 111.928 217H76.7733ZM135.604 217.395C134.604 217.395 133.761 217.053 133.076 216.368C132.392 215.683 132.049 214.841 132.049 213.84V165.097C132.049 164.096 132.392 163.254 133.076 162.569C133.761 161.832 134.604 161.463 135.604 161.463C136.605 161.463 137.448 161.832 138.132 162.569C138.87 163.254 139.238 164.096 139.238 165.097V213.84C139.238 214.841 138.87 215.683 138.132 216.368C137.448 217.053 136.605 217.395 135.604 217.395ZM163.662 217.395C162.661 217.395 161.818 217.053 161.134 216.368C160.449 215.683 160.107 214.841 160.107 213.84V165.492C160.107 164.491 160.449 163.649 161.134 162.964C161.818 162.227 162.661 161.858 163.662 161.858H181.674C186.677 161.858 190.759 162.701 193.919 164.386C197.079 166.071 199.343 168.231 200.713 170.864C202.082 173.497 202.767 176.341 202.767 179.396C202.767 182.451 202.082 185.295 200.713 187.928C199.343 190.561 197.079 192.721 193.919 194.406C190.759 196.091 186.677 196.934 181.674 196.934H167.296V213.84C167.296 214.841 166.927 215.683 166.19 216.368C165.505 217.053 164.662 217.395 163.662 217.395ZM180.963 190.14C186.335 190.14 190.1 189.113 192.26 187.059C194.472 185.005 195.578 182.451 195.578 179.396C195.578 176.341 194.472 173.787 192.26 171.733C190.1 169.679 186.335 168.652 180.963 168.652H167.296V190.14H180.963Z" fill="white"/>
<path d="M73.5343 215.657L74.9485 214.243V214.243L73.5343 215.657ZM73.1393 209.495L71.5852 208.236L71.5776 208.246L73.1393 209.495ZM106.161 168.731L107.715 169.99L110.355 166.731H106.161V168.731ZM73.2973 167.783L71.8277 169.14L71.882 169.198L71.9407 169.253L73.2973 167.783ZM73.2973 162.885L71.8831 161.471L71.8548 161.499L71.8277 161.528L73.2973 162.885ZM113.508 163.28L112.013 164.609L112.034 164.631L112.054 164.653L113.508 163.28ZM114.456 168.415L112.636 167.587L112.603 167.658L112.577 167.732L114.456 168.415ZM113.587 169.916L112.082 168.599L112.056 168.628L112.032 168.659L113.587 169.916ZM80.9603 210.285L79.4048 209.028L76.7723 212.285H80.9603V210.285ZM114.298 211.312L112.829 212.669L112.883 212.727L112.942 212.782L114.298 211.312ZM114.298 216.052L112.942 214.582L112.912 214.61L112.884 214.638L114.298 216.052ZM76.7733 215C76.0408 215 75.4695 214.764 74.9485 214.243L72.1201 217.071C73.3898 218.341 74.9778 219 76.7733 219V215ZM74.9485 214.243C74.4275 213.722 74.1913 213.151 74.1913 212.418H70.1913C70.1913 214.213 70.8504 215.802 72.1201 217.071L74.9485 214.243ZM74.1913 212.418C74.1913 211.644 74.3932 211.129 74.701 210.744L71.5776 208.246C70.6214 209.441 70.1913 210.875 70.1913 212.418H74.1913ZM74.6934 210.754L107.715 169.99L104.607 167.472L71.5852 208.236L74.6934 210.754ZM106.161 166.731H75.7463V170.731H106.161V166.731ZM75.7463 166.731C75.2914 166.731 74.962 166.598 74.6539 166.313L71.9407 169.253C73.0019 170.232 74.3052 170.731 75.7463 170.731V166.731ZM74.7669 166.426C74.4825 166.118 74.3493 165.789 74.3493 165.334H70.3493C70.3493 166.775 70.8481 168.078 71.8277 169.14L74.7669 166.426ZM74.3493 165.334C74.3493 164.879 74.4825 164.55 74.7669 164.242L71.8277 161.528C70.8481 162.59 70.3493 163.893 70.3493 165.334H74.3493ZM74.7115 164.299C75.0301 163.981 75.3413 163.858 75.7463 163.858V159.858C74.2553 159.858 72.9338 160.42 71.8831 161.471L74.7115 164.299ZM75.7463 163.858H110.032V159.858H75.7463V163.858ZM110.032 163.858C111.038 163.858 111.613 164.159 112.013 164.609L115.003 161.951C113.718 160.505 111.976 159.858 110.032 159.858V163.858ZM112.054 164.653C112.58 165.21 112.851 165.869 112.851 166.756H116.851C116.851 164.904 116.227 163.246 114.962 161.907L112.054 164.653ZM112.851 166.756C112.851 166.944 112.805 167.215 112.636 167.587L116.277 169.243C116.634 168.456 116.851 167.621 116.851 166.756H112.851ZM112.577 167.732C112.442 168.102 112.272 168.382 112.082 168.599L115.092 171.233C115.64 170.608 116.049 169.887 116.336 169.098L112.577 167.732ZM112.032 168.659L79.4048 209.028L82.5158 211.542L115.143 171.173L112.032 168.659ZM80.9603 212.285H111.928V208.285H80.9603V212.285ZM111.928 212.285C112.329 212.285 112.583 212.402 112.829 212.669L115.768 209.955C114.75 208.853 113.423 208.285 111.928 208.285V212.285ZM112.942 212.782C113.208 213.028 113.325 213.281 113.325 213.682H117.325C117.325 212.187 116.758 210.86 115.655 209.842L112.942 212.782ZM113.325 213.682C113.325 214.083 113.208 214.336 112.942 214.582L115.655 217.522C116.758 216.504 117.325 215.177 117.325 213.682H113.325ZM112.884 214.638C112.652 214.87 112.382 215 111.928 215V219C113.371 219 114.681 218.498 115.713 217.466L112.884 214.638ZM111.928 215H76.7733V219H111.928V215ZM133.076 216.368L134.49 214.954L133.076 216.368ZM133.076 162.569L134.49 163.983L134.517 163.957L134.542 163.93L133.076 162.569ZM138.132 162.569L136.667 163.93L136.717 163.984L136.771 164.035L138.132 162.569ZM138.132 216.368L136.771 214.902L136.744 214.928L136.718 214.954L138.132 216.368ZM135.604 215.395C135.114 215.395 134.786 215.25 134.49 214.954L131.662 217.782C132.736 218.856 134.093 219.395 135.604 219.395V215.395ZM134.49 214.954C134.195 214.658 134.049 214.33 134.049 213.84H130.049C130.049 215.351 130.588 216.709 131.662 217.782L134.49 214.954ZM134.049 213.84V165.097H130.049V213.84H134.049ZM134.049 165.097C134.049 164.607 134.195 164.279 134.49 163.983L131.662 161.155C130.588 162.228 130.049 163.586 130.049 165.097H134.049ZM134.542 163.93C134.85 163.598 135.163 163.463 135.604 163.463V159.463C134.044 159.463 132.671 160.066 131.611 161.208L134.542 163.93ZM135.604 163.463C136.045 163.463 136.358 163.598 136.667 163.93L139.598 161.208C138.537 160.066 137.165 159.463 135.604 159.463V163.463ZM136.771 164.035C137.104 164.343 137.238 164.656 137.238 165.097H141.238C141.238 163.537 140.635 162.164 139.493 161.103L136.771 164.035ZM137.238 165.097V213.84H141.238V165.097H137.238ZM137.238 213.84C137.238 214.281 137.104 214.594 136.771 214.902L139.493 217.834C140.635 216.773 141.238 215.4 141.238 213.84H137.238ZM136.718 214.954C136.422 215.25 136.094 215.395 135.604 215.395V219.395C137.115 219.395 138.473 218.856 139.546 217.782L136.718 214.954ZM161.134 216.368L162.548 214.954L161.134 216.368ZM161.134 162.964L162.548 164.378L162.574 164.352L162.599 164.325L161.134 162.964ZM193.919 164.386L194.86 162.621L193.919 164.386ZM200.713 170.864L198.938 171.787L200.713 170.864ZM200.713 187.928L198.938 187.005V187.005L200.713 187.928ZM193.919 194.406L194.86 196.171L193.919 194.406ZM167.296 196.934V194.934H165.296V196.934H167.296ZM166.19 216.368L164.829 214.902L164.802 214.928L164.775 214.954L166.19 216.368ZM192.26 187.059L190.899 185.593L190.89 185.602L190.881 185.61L192.26 187.059ZM192.26 171.733L190.881 173.182L190.89 173.19L190.899 173.199L192.26 171.733ZM167.296 168.652V166.652H165.296V168.652H167.296ZM167.296 190.14H165.296V192.14H167.296V190.14ZM163.662 215.395C163.172 215.395 162.844 215.25 162.548 214.954L159.719 217.782C160.793 218.856 162.15 219.395 163.662 219.395V215.395ZM162.548 214.954C162.252 214.658 162.107 214.33 162.107 213.84H158.107C158.107 215.351 158.646 216.709 159.719 217.782L162.548 214.954ZM162.107 213.84V165.492H158.107V213.84H162.107ZM162.107 165.492C162.107 165.002 162.252 164.674 162.548 164.378L159.719 161.55C158.646 162.623 158.107 163.981 158.107 165.492H162.107ZM162.599 164.325C162.908 163.993 163.221 163.858 163.662 163.858V159.858C162.101 159.858 160.729 160.461 159.668 161.603L162.599 164.325ZM163.662 163.858H181.674V159.858H163.662V163.858ZM181.674 163.858C186.472 163.858 190.199 164.669 192.977 166.151L194.86 162.621C191.318 160.732 186.882 159.858 181.674 159.858V163.858ZM192.977 166.151C195.856 167.686 197.791 169.58 198.938 171.787L202.487 169.941C200.896 166.881 198.301 164.457 194.86 162.621L192.977 166.151ZM198.938 171.787C200.155 174.127 200.767 176.653 200.767 179.396H204.767C204.767 176.03 204.009 172.868 202.487 169.941L198.938 171.787ZM200.767 179.396C200.767 182.139 200.155 184.665 198.938 187.005L202.487 188.851C204.009 185.924 204.767 182.762 204.767 179.396H200.767ZM198.938 187.005C197.791 189.212 195.856 191.106 192.977 192.641L194.86 196.171C198.301 194.335 200.896 191.911 202.487 188.851L198.938 187.005ZM192.977 192.641C190.199 194.123 186.472 194.934 181.674 194.934V198.934C186.882 198.934 191.318 198.06 194.86 196.171L192.977 192.641ZM181.674 194.934H167.296V198.934H181.674V194.934ZM165.296 196.934V213.84H169.296V196.934H165.296ZM165.296 213.84C165.296 214.281 165.161 214.594 164.829 214.902L167.55 217.834C168.693 216.773 169.296 215.4 169.296 213.84H165.296ZM164.775 214.954C164.48 215.25 164.152 215.395 163.662 215.395V219.395C165.173 219.395 166.53 218.856 167.604 217.782L164.775 214.954ZM180.963 192.14C186.475 192.14 190.904 191.109 193.638 188.508L190.881 185.61C189.296 187.117 186.195 188.14 180.963 188.14V192.14ZM193.62 188.525C196.246 186.087 197.578 182.999 197.578 179.396H193.578C193.578 181.902 192.698 183.923 190.899 185.593L193.62 188.525ZM197.578 179.396C197.578 175.793 196.246 172.705 193.62 170.267L190.899 173.199C192.698 174.869 193.578 176.89 193.578 179.396H197.578ZM193.638 170.284C190.904 167.683 186.475 166.652 180.963 166.652V170.652C186.195 170.652 189.296 171.675 190.881 173.182L193.638 170.284ZM180.963 166.652H167.296V170.652H180.963V166.652ZM165.296 168.652V190.14H169.296V168.652H165.296ZM167.296 192.14H180.963V188.14H167.296V192.14Z" fill="white"/>
<g filter="url(#filter1_d)">
<path d="M272 102H192C179.85 102 170 92.1503 170 80V0L272 102Z" fill="url(#paint2_linear)"/>
</g>
</g>
<defs>
<filter id="filter0_f" x="8" y="105" width="256" height="162" filterUnits="userSpaceOnUse" color-interpolation-filters="sRGB">
<feFlood flood-opacity="0" result="BackgroundImageFix"/>
<feBlend mode="normal" in="SourceGraphic" in2="BackgroundImageFix" result="shape"/>
<feGaussianBlur stdDeviation="19.5" result="effect1_foregroundBlur"/>
</filter>
<filter id="filter1_d" x="147" y="-24" width="152" height="152" filterUnits="userSpaceOnUse" color-interpolation-filters="sRGB">
<feFlood flood-opacity="0" result="BackgroundImageFix"/>
<feColorMatrix in="SourceAlpha" type="matrix" values="0 0 0 0 0 0 0 0 0 0 0 0 0 0 0 0 0 0 127 0" result="hardAlpha"/>
<feOffset dx="2" dy="1"/>
<feGaussianBlur stdDeviation="12.5"/>
<feColorMatrix type="matrix" values="0 0 0 0 0 0 0 0 0 0 0 0 0 0 0 0 0 0 0.33 0"/>
<feBlend mode="normal" in2="BackgroundImageFix" result="effect1_dropShadow"/>
<feBlend mode="normal" in="SourceGraphic" in2="effect1_dropShadow" result="shape"/>
</filter>
<linearGradient id="paint0_linear" x1="136" y1="0" x2="136" y2="308" gradientUnits="userSpaceOnUse">
<stop stop-color="#FF7979"/>
<stop offset="1" stop-color="#E85555"/>
</linearGradient>
<linearGradient id="paint1_linear" x1="136" y1="0" x2="136" y2="308" gradientUnits="userSpaceOnUse">
<stop stop-color="#2EBC89"/>
<stop offset="1" stop-color="#1DA473"/>
</linearGradient>
<linearGradient id="paint2_linear" x1="221" y1="0" x2="221" y2="102" gradientUnits="userSpaceOnUse">
<stop stop-color="#23A476"/>
<stop offset="1" stop-color="#11835A"/>
</linearGradient>
</defs>
</svg>
