<svg width="1081" height="1072" viewBox="0 0 1081 1072" fill="none" xmlns="http://www.w3.org/2000/svg">
<g clip-path="url(#clip0)">
<rect width="1080.08" height="1071.25" rx="300" fill="white"/>
<rect width="1080.08" height="1071.25" fill="#B3F589"/>
<path d="M730.209 852.517C750.285 850.03 770.479 847.53 793.871 845.432C828.028 839.313 788.588 831.636 780.295 831.135C772.001 830.633 724.827 826.648 697.375 824.265C669.924 821.882 615.158 817.504 528.367 817.504C438.574 817.504 359.303 825.319 340.057 826.648C323.341 827.803 307.965 828.375 288.884 829.881C282.937 830.35 276.735 830.763 271.502 833.625C262.44 838.582 276.229 843.572 294.234 847.491C315.878 852.201 356.666 857.437 381.485 859.078C406.303 860.72 457.731 864.392 544.522 864.392C634.316 864.392 681.922 858.497 730.209 852.517Z" fill="#6EB94B" fill-opacity="0.27"/>
<path d="M518.884 214.07L518.845 214.073L518.805 214.076C448.914 219.724 380.409 249.441 332.588 302.223L332.307 302.533L332.041 302.855L265.525 383.294C262.978 386.064 260.104 388.603 256.412 391.865C255.57 392.609 254.685 393.391 253.752 394.222C249.076 398.385 243.226 403.76 238.475 410.402C223.168 431.801 225.387 460.006 243.851 478.748L257.015 465.78L243.851 478.748C252.596 487.625 262.168 495.399 270.827 502.431C271.498 502.976 272.164 503.517 272.824 504.053C282.296 511.758 290.67 518.73 297.919 526.599L313.096 543.075C339.472 571.708 369.557 603.519 409.142 621.625C453.779 642.041 503.817 650.063 552.803 646.316L552.842 646.313L552.882 646.31C622.773 640.662 691.278 610.944 739.1 558.162L739.64 557.566L740.127 556.924L795.625 483.779C798.112 481.11 800.919 478.63 804.494 475.471C805.336 474.727 806.221 473.945 807.154 473.114C811.83 468.951 817.679 463.576 822.43 456.934C837.737 435.536 835.518 407.33 817.054 388.588C810.442 381.876 803.21 375.44 796.561 369.523C794.149 367.377 791.814 365.299 789.613 363.301C780.933 355.42 773.44 348.029 767.333 339.753L754.479 322.334C731.259 290.869 702.961 257.393 663.279 239.098C618.457 218.433 568.138 210.302 518.884 214.07Z" fill="#6BD717" stroke="#2E4A17" stroke-width="36.9587"/>
<path d="M542.985 265.1C376.044 286.29 390.99 371.508 321.198 405.731C312.297 411.308 302.675 402.546 307.396 393.162C347.852 312.738 423.682 251.123 511.037 247.407C554.595 239.487 632.937 251.059 542.985 265.1Z" fill="#DFFFCB" fill-opacity="0.6"/>
<path d="M518.884 214.07L518.845 214.073L518.805 214.076C448.914 219.724 380.409 249.441 332.588 302.223L332.307 302.533L332.041 302.855L265.525 383.294C262.978 386.064 260.104 388.603 256.412 391.865C255.57 392.609 254.685 393.391 253.752 394.222C249.076 398.385 243.226 403.76 238.475 410.402C223.168 431.801 225.387 460.006 243.851 478.748L257.015 465.78L243.851 478.748C252.596 487.625 262.168 495.399 270.827 502.431C271.498 502.976 272.164 503.517 272.824 504.053C282.296 511.758 290.67 518.73 297.919 526.599L313.096 543.075C339.472 571.708 369.557 603.519 409.142 621.625C453.779 642.041 503.817 650.063 552.803 646.316L552.842 646.313L552.882 646.31C622.773 640.662 691.278 610.944 739.1 558.162L739.64 557.566L740.127 556.924L795.625 483.779C798.112 481.11 800.919 478.63 804.494 475.471C805.336 474.727 806.221 473.945 807.154 473.114C811.83 468.951 817.679 463.576 822.43 456.934C837.737 435.536 835.518 407.33 817.054 388.588C810.442 381.876 803.21 375.44 796.561 369.523C794.149 367.377 791.814 365.299 789.613 363.301C780.933 355.42 773.44 348.029 767.333 339.753L754.479 322.334C731.259 290.869 702.961 257.393 663.279 239.098C618.457 218.433 568.138 210.302 518.884 214.07Z" stroke="#2E4A17" stroke-width="36.9587"/>
<path fill-rule="evenodd" clip-rule="evenodd" d="M342.585 547.015C364.647 570.007 388.315 591.467 417.173 604.666C458.759 623.687 505.64 631.263 551.737 627.737C617.601 622.414 681.501 594.439 725.749 545.601L781.77 471.766C785.136 468.052 788.998 464.645 792.857 461.24C798.289 456.448 803.715 451.661 807.744 446.029C816.715 433.488 816.567 417.695 807.854 405.673L748.298 482.859C692.79 543.135 613.071 577.243 531.146 583.15C473.809 587.037 415.614 577.104 364.119 552.991C358.726 550.465 351.336 548.558 342.585 547.015Z" fill="#69C032"/>
<path d="M641.213 595.962C598.662 614.249 527.828 629.447 543.409 607.084C550.342 597.134 598.823 591 634.264 577.971C678.476 561.717 714.195 529.91 721.127 532.129C733.616 536.128 683.764 577.675 641.213 595.962Z" fill="#60B62A"/>
<path d="M285.984 432.713C283.536 435.213 277.572 438.865 273.008 436.262C268.445 433.659 266.856 427.849 269.459 423.286C272.062 418.722 280.732 409.685 289.422 414.642C293.985 417.245 288.433 430.213 285.984 432.713Z" fill="#BFFAA6" fill-opacity="0.3"/>
<path d="M692.371 372.453C697.389 374.44 703.526 372.279 703.755 366.887C704.436 350.885 688.895 338.691 672.957 334.776C657.708 331.03 643.818 338.843 637.835 351.779C635.229 357.416 640.896 362.548 647.106 362.584C653.61 362.621 661.708 363.512 671.619 365.947C679.877 367.976 686.728 370.218 692.371 372.453Z" fill="#2E4A17"/>
<path d="M499.277 374.595C506.151 374.39 512.101 368.707 509.336 362.41C508.118 359.636 506.547 356.964 504.616 354.455C491.759 337.749 468.186 342.783 451.48 355.64C442.305 362.701 437.704 371.859 437.551 381.447C437.444 388.06 444.869 390.949 450.863 388.154C469.959 379.248 484.566 375.034 499.277 374.595Z" fill="#2E4A17"/>
<path d="M581.115 444.608C557.076 445.288 544.244 420.409 539.778 403.69C538.038 397.174 541.775 390.915 548.236 388.982C555.545 386.794 566.63 384.405 581.115 383.93C595.593 383.454 606.18 385.234 613.015 387.055C619.045 388.662 622.666 394.321 621.767 400.496C619.281 417.553 609.51 443.805 581.115 444.608Z" fill="#2E4A17"/>
</g>
<defs>
<clipPath id="clip0">
<rect width="1080.08" height="1071.25" rx="300" fill="white"/>
</clipPath>
</defs>
</svg>
