<svg width="272" height="308" viewBox="0 0 272 308" fill="none" xmlns="http://www.w3.org/2000/svg">
<mask id="mask0" style="mask-type:alpha" maskUnits="userSpaceOnUse" x="0" y="0" width="272" height="308">
<path d="M250 308H22C9.84974 308 0 298.15 0 286V22C0 9.84974 9.84974 0 22 0H170L272 102V286C272 298.15 262.15 308 250 308Z" fill="url(#paint0_linear)"/>
</mask>
<g mask="url(#mask0)">
<path d="M250 308H22C9.84974 308 0 298.15 0 286V22C0 9.84974 9.84974 0 22 0H170L272 102V286C272 298.15 262.15 308 250 308Z" fill="url(#paint1_linear)"/>
<g opacity="0.27" filter="url(#filter0_f)">
<rect x="48" y="149" width="178" height="84" fill="#0072A2" style="mix-blend-mode:darken"/>
</g>
<path d="M52.5044 217C51.5037 217 50.6611 216.658 49.9764 215.973C49.2917 215.288 48.9494 214.446 48.9494 213.445V165.492C48.9494 164.491 49.2917 163.649 49.9764 162.964C50.6611 162.227 51.5037 161.858 52.5044 161.858H68.3834C74.3874 161.858 79.4697 163.201 83.6304 165.887C87.8437 168.52 91.0037 171.944 93.1104 176.157C95.2171 180.37 96.2704 184.794 96.2704 189.429C96.2704 194.064 95.2171 198.488 93.1104 202.701C91.0037 206.914 87.8437 210.364 83.6304 213.05C79.4697 215.683 74.3874 217 68.3834 217H52.5044ZM67.5144 210.285C71.8331 210.285 75.6251 209.416 78.8904 207.678C82.1557 205.887 84.6837 203.438 86.4744 200.331C88.2651 197.171 89.1604 193.537 89.1604 189.429C89.1604 185.321 88.2651 181.713 86.4744 178.606C84.6837 175.446 82.1557 172.997 78.8904 171.259C75.6251 169.468 71.8331 168.573 67.5144 168.573H56.1384V210.285H67.5144ZM138.218 217.79C132.688 217.79 127.842 216.579 123.682 214.156C119.521 211.733 116.308 208.389 114.044 204.123C111.779 199.857 110.594 194.959 110.489 189.429C110.594 183.899 111.779 179.001 114.044 174.735C116.308 170.469 119.521 167.125 123.682 164.702C127.842 162.279 132.688 161.068 138.218 161.068C143.748 161.068 148.567 162.279 152.675 164.702C156.835 167.125 160.048 170.495 162.313 174.814C164.63 179.08 165.841 183.952 165.947 189.429C165.841 194.906 164.63 199.804 162.313 204.123C160.048 208.389 156.835 211.733 152.675 214.156C148.567 216.579 143.748 217.79 138.218 217.79ZM138.218 211.075C142.431 211.075 146.091 210.127 149.199 208.231C152.306 206.335 154.676 203.754 156.309 200.489C157.941 197.224 158.758 193.537 158.758 189.429C158.758 185.321 157.941 181.634 156.309 178.369C154.676 175.104 152.306 172.523 149.199 170.627C146.091 168.731 142.431 167.783 138.218 167.783C133.952 167.783 130.265 168.731 127.158 170.627C124.103 172.523 121.759 175.104 120.127 178.369C118.494 181.634 117.678 185.321 117.678 189.429C117.678 193.537 118.494 197.224 120.127 200.489C121.759 203.754 124.103 206.335 127.158 208.231C130.265 210.127 133.952 211.075 138.218 211.075ZM207.779 217.79C202.512 217.79 197.772 216.658 193.559 214.393C189.398 212.076 186.107 208.784 183.684 204.518C181.314 200.199 180.129 195.17 180.129 189.429C180.129 183.688 181.314 178.685 183.684 174.419C186.107 170.1 189.398 166.809 193.559 164.544C197.772 162.227 202.512 161.068 207.779 161.068C211.36 161.068 214.547 161.489 217.338 162.332C220.182 163.175 223 164.386 225.791 165.966C226.95 166.598 227.529 167.599 227.529 168.968C227.529 169.758 227.239 170.469 226.66 171.101C226.081 171.68 225.317 171.97 224.369 171.97C223.842 171.97 223.368 171.865 222.947 171.654C220.63 170.443 218.365 169.521 216.153 168.889C213.941 168.257 211.387 167.941 208.49 167.941C203.961 167.941 200.09 168.889 196.877 170.785C193.717 172.628 191.321 175.183 189.688 178.448C188.108 181.661 187.318 185.321 187.318 189.429C187.318 193.537 188.108 197.224 189.688 200.489C191.321 203.702 193.717 206.256 196.877 208.152C200.09 209.995 203.961 210.917 208.49 210.917C211.387 210.917 213.941 210.601 216.153 209.969C218.365 209.337 220.63 208.415 222.947 207.204C223.368 206.993 223.842 206.888 224.369 206.888C225.317 206.888 226.081 207.178 226.66 207.757C227.239 208.336 227.529 209.047 227.529 209.89C227.529 211.259 226.95 212.26 225.791 212.892C223 214.472 220.182 215.683 217.338 216.526C214.547 217.369 211.36 217.79 207.779 217.79Z" fill="white"/>
<path d="M49.9764 215.973L51.3906 214.559H51.3906L49.9764 215.973ZM49.9764 162.964L51.3906 164.378L51.4168 164.352L51.442 164.325L49.9764 162.964ZM83.6304 165.887L82.5457 167.567L82.558 167.575L82.5704 167.583L83.6304 165.887ZM93.1104 176.157L91.3216 177.051L93.1104 176.157ZM93.1104 202.701L91.3216 201.807H91.3216L93.1104 202.701ZM83.6304 213.05L84.7 214.74L84.7055 214.736L83.6304 213.05ZM78.8904 207.678L79.8301 209.443L79.8411 209.438L79.8521 209.432L78.8904 207.678ZM86.4744 200.331L88.2073 201.33L88.2109 201.323L88.2145 201.317L86.4744 200.331ZM86.4744 178.606L84.7344 179.592L84.7379 179.598L84.7416 179.605L86.4744 178.606ZM78.8904 171.259L77.9287 173.013L77.9397 173.019L77.9507 173.024L78.8904 171.259ZM56.1384 168.573V166.573H54.1384V168.573H56.1384ZM56.1384 210.285H54.1384V212.285H56.1384V210.285ZM52.5044 215C52.0143 215 51.6864 214.855 51.3906 214.559L48.5622 217.387C49.6357 218.461 50.9931 219 52.5044 219V215ZM51.3906 214.559C51.0948 214.263 50.9494 213.935 50.9494 213.445H46.9494C46.9494 214.956 47.4887 216.314 48.5622 217.387L51.3906 214.559ZM50.9494 213.445V165.492H46.9494V213.445H50.9494ZM50.9494 165.492C50.9494 165.002 51.0948 164.674 51.3906 164.378L48.5622 161.55C47.4887 162.623 46.9494 163.981 46.9494 165.492H50.9494ZM51.442 164.325C51.7506 163.993 52.0634 163.858 52.5044 163.858V159.858C50.9441 159.858 49.5715 160.461 48.5108 161.603L51.442 164.325ZM52.5044 163.858H68.3834V159.858H52.5044V163.858ZM68.3834 163.858C74.085 163.858 78.7712 165.131 82.5457 167.567L84.7151 164.207C80.1683 161.271 74.6898 159.858 68.3834 159.858V163.858ZM82.5704 167.583C86.4895 170.032 89.3886 173.186 91.3216 177.051L94.8993 175.263C92.6189 170.702 89.198 167.008 84.6904 164.191L82.5704 167.583ZM91.3216 177.051C93.2917 180.992 94.2704 185.11 94.2704 189.429H98.2704C98.2704 184.479 97.1424 179.749 94.8993 175.263L91.3216 177.051ZM94.2704 189.429C94.2704 193.748 93.2917 197.866 91.3216 201.807L94.8993 203.595C97.1424 199.109 98.2704 194.379 98.2704 189.429H94.2704ZM91.3216 201.807C89.3867 205.676 86.4827 208.86 82.5553 211.364L84.7055 214.736C89.2048 211.868 92.6208 208.152 94.8993 203.595L91.3216 201.807ZM82.5608 211.36C78.784 213.75 74.0921 215 68.3834 215V219C74.6827 219 80.1555 217.616 84.7 214.74L82.5608 211.36ZM68.3834 215H52.5044V219H68.3834V215ZM67.5144 212.285C72.1057 212.285 76.2305 211.359 79.8301 209.443L77.9507 205.913C75.0196 207.473 71.5604 208.285 67.5144 208.285V212.285ZM79.8521 209.432C83.4259 207.472 86.2264 204.767 88.2073 201.33L84.7416 199.332C83.1411 202.11 80.8856 204.303 77.9287 205.924L79.8521 209.432ZM88.2145 201.317C90.1969 197.819 91.1604 193.837 91.1604 189.429H87.1604C87.1604 193.237 86.3333 196.523 84.7344 199.345L88.2145 201.317ZM91.1604 189.429C91.1604 185.022 90.1971 181.06 88.2073 177.607L84.7416 179.605C86.3331 182.366 87.1604 185.62 87.1604 189.429H91.1604ZM88.2145 177.62C86.2328 174.123 83.4243 171.407 79.8301 169.494L77.9507 173.024C80.8872 174.587 83.1346 176.769 84.7344 179.592L88.2145 177.62ZM79.8521 169.505C76.248 167.529 72.1152 166.573 67.5144 166.573V170.573C71.551 170.573 75.0022 171.408 77.9287 173.013L79.8521 169.505ZM67.5144 166.573H56.1384V170.573H67.5144V166.573ZM54.1384 168.573V210.285H58.1384V168.573H54.1384ZM56.1384 212.285H67.5144V208.285H56.1384V212.285ZM123.682 214.156L124.688 212.428L123.682 214.156ZM114.044 204.123L112.277 205.061L114.044 204.123ZM110.489 189.429L108.489 189.391L108.488 189.429L108.489 189.467L110.489 189.429ZM114.044 174.735L115.81 175.673L114.044 174.735ZM123.682 164.702L122.675 162.974H122.675L123.682 164.702ZM152.675 164.702L151.659 166.425L151.668 166.43L152.675 164.702ZM162.313 174.814L160.541 175.743L160.548 175.756L160.555 175.769L162.313 174.814ZM165.947 189.429L167.946 189.467L167.947 189.429L167.946 189.391L165.947 189.429ZM162.313 204.123L160.55 203.177L160.546 203.185L162.313 204.123ZM152.675 214.156L151.668 212.428L151.659 212.433L152.675 214.156ZM149.199 208.231L148.157 206.524L149.199 208.231ZM156.309 200.489L158.097 201.383L156.309 200.489ZM156.309 178.369L158.097 177.475L156.309 178.369ZM149.199 170.627L148.157 172.334L149.199 170.627ZM127.158 170.627L126.116 168.92L126.109 168.924L126.103 168.928L127.158 170.627ZM120.127 178.369L118.338 177.475L120.127 178.369ZM120.127 200.489L118.338 201.383L120.127 200.489ZM127.158 208.231L126.103 209.93L126.109 209.934L126.116 209.938L127.158 208.231ZM138.218 215.79C132.988 215.79 128.5 214.647 124.688 212.428L122.675 215.884C127.184 218.51 132.387 219.79 138.218 219.79V215.79ZM124.688 212.428C120.85 210.193 117.901 207.123 115.81 203.185L112.277 205.061C114.716 209.655 118.191 213.274 122.675 215.884L124.688 212.428ZM115.81 203.185C113.713 199.234 112.588 194.653 112.488 189.391L108.489 189.467C108.599 195.265 109.845 200.48 112.277 205.061L115.81 203.185ZM112.488 189.467C112.588 184.205 113.713 179.624 115.81 175.673L112.277 173.797C109.845 178.378 108.599 183.593 108.489 189.391L112.488 189.467ZM115.81 175.673C117.901 171.735 120.85 168.665 124.688 166.43L122.675 162.974C118.191 165.584 114.716 169.203 112.277 173.797L115.81 175.673ZM124.688 166.43C128.5 164.211 132.988 163.068 138.218 163.068V159.068C132.387 159.068 127.184 160.348 122.675 162.974L124.688 166.43ZM138.218 163.068C143.448 163.068 147.905 164.211 151.659 166.425L153.691 162.979C149.229 160.348 144.047 159.068 138.218 159.068V163.068ZM151.668 166.43C155.499 168.661 158.449 171.753 160.541 175.743L164.084 173.885C161.647 169.238 158.171 165.588 153.681 162.974L151.668 166.43ZM160.555 175.769C162.701 179.719 163.847 184.269 163.947 189.467L167.946 189.391C167.835 183.634 166.559 178.441 164.07 173.859L160.555 175.769ZM163.947 189.391C163.847 194.589 162.701 199.17 160.55 203.177L164.075 205.069C166.559 200.439 167.835 195.224 167.946 189.467L163.947 189.391ZM160.546 203.185C158.456 207.123 155.506 210.193 151.668 212.428L153.681 215.884C158.165 213.274 161.64 209.655 164.079 205.061L160.546 203.185ZM151.659 212.433C147.905 214.647 143.448 215.79 138.218 215.79V219.79C144.047 219.79 149.229 218.51 153.691 215.879L151.659 212.433ZM138.218 213.075C142.74 213.075 146.772 212.054 150.24 209.938L148.157 206.524C145.41 208.2 142.122 209.075 138.218 209.075V213.075ZM150.24 209.938C153.669 207.846 156.297 204.983 158.097 201.383L154.52 199.595C153.054 202.525 150.943 204.824 148.157 206.524L150.24 209.938ZM158.097 201.383C159.885 197.807 160.758 193.808 160.758 189.429H156.758C156.758 193.266 155.997 196.64 154.52 199.595L158.097 201.383ZM160.758 189.429C160.758 185.05 159.885 181.051 158.097 177.475L154.52 179.263C155.997 182.218 156.758 185.592 156.758 189.429H160.758ZM158.097 177.475C156.297 173.875 153.669 171.012 150.24 168.92L148.157 172.334C150.943 174.034 153.054 176.333 154.52 179.263L158.097 177.475ZM150.24 168.92C146.772 166.804 142.74 165.783 138.218 165.783V169.783C142.122 169.783 145.41 170.658 148.157 172.334L150.24 168.92ZM138.218 165.783C133.648 165.783 129.587 166.801 126.116 168.92L128.199 172.334C130.942 170.661 134.255 169.783 138.218 169.783V165.783ZM126.103 168.928C122.729 171.022 120.133 173.884 118.338 177.475L121.915 179.263C123.385 176.324 125.477 174.024 128.212 172.326L126.103 168.928ZM118.338 177.475C116.55 181.051 115.678 185.05 115.678 189.429H119.678C119.678 185.592 120.438 182.218 121.915 179.263L118.338 177.475ZM115.678 189.429C115.678 193.808 116.55 197.807 118.338 201.383L121.915 199.595C120.438 196.64 119.678 193.266 119.678 189.429H115.678ZM118.338 201.383C120.133 204.974 122.729 207.836 126.103 209.93L128.212 206.532C125.477 204.834 123.385 202.534 121.915 199.595L118.338 201.383ZM126.116 209.938C129.587 212.057 133.648 213.075 138.218 213.075V209.075C134.255 209.075 130.942 208.197 128.199 206.524L126.116 209.938ZM193.559 214.393L192.586 216.14L192.599 216.148L192.612 216.155L193.559 214.393ZM183.684 204.518L181.931 205.48L181.938 205.493L181.945 205.506L183.684 204.518ZM183.684 174.419L181.94 173.44L181.936 173.448L183.684 174.419ZM193.559 164.544L194.515 166.301L194.523 166.296L193.559 164.544ZM217.338 162.332L216.76 164.247L216.77 164.25L217.338 162.332ZM225.791 165.966L224.806 167.707L224.819 167.714L224.833 167.722L225.791 165.966ZM226.66 171.101L228.074 172.515L228.105 172.484L228.134 172.452L226.66 171.101ZM222.947 171.654L222.02 173.426L222.036 173.435L222.052 173.443L222.947 171.654ZM216.153 168.889L216.702 166.966L216.153 168.889ZM196.877 170.785L197.885 172.513L197.893 172.507L196.877 170.785ZM189.688 178.448L187.899 177.554L187.893 177.565L189.688 178.448ZM189.688 200.489L187.888 201.36L187.896 201.378L187.905 201.395L189.688 200.489ZM196.877 208.152L195.848 209.867L195.865 209.877L195.882 209.887L196.877 208.152ZM216.153 209.969L216.702 211.892V211.892L216.153 209.969ZM222.947 207.204L222.052 205.415L222.036 205.423L222.02 205.432L222.947 207.204ZM226.66 207.757L228.074 206.343V206.343L226.66 207.757ZM225.791 212.892L224.833 211.136L224.819 211.144L224.806 211.151L225.791 212.892ZM217.338 216.526L216.77 214.608L216.76 214.611L217.338 216.526ZM207.779 215.79C202.809 215.79 198.399 214.724 194.506 212.631L192.612 216.155C197.145 218.591 202.216 219.79 207.779 219.79V215.79ZM194.532 212.646C190.701 210.512 187.671 207.488 185.423 203.53L181.945 205.506C184.543 210.08 188.095 213.639 192.586 216.14L194.532 212.646ZM185.437 203.556C183.254 199.577 182.129 194.889 182.129 189.429H178.129C178.129 195.45 179.374 200.821 181.931 205.48L185.437 203.556ZM182.129 189.429C182.129 183.968 183.254 179.311 185.432 175.39L181.936 173.448C179.374 178.059 178.129 183.409 178.129 189.429H182.129ZM185.428 175.397C187.675 171.392 190.701 168.377 194.515 166.301L192.603 162.787C188.096 165.24 184.538 168.809 181.94 173.44L185.428 175.397ZM194.523 166.296C198.413 164.157 202.816 163.068 207.779 163.068V159.068C202.208 159.068 197.131 160.297 192.595 162.792L194.523 166.296ZM207.779 163.068C211.207 163.068 214.193 163.472 216.76 164.247L217.916 160.417C214.9 159.507 211.513 159.068 207.779 159.068V163.068ZM216.77 164.25C219.457 165.046 222.136 166.195 224.806 167.707L226.776 164.225C223.864 162.577 220.907 161.303 217.906 160.414L216.77 164.25ZM224.833 167.722C225.137 167.888 225.282 168.053 225.364 168.193C225.447 168.337 225.529 168.57 225.529 168.968H229.529C229.529 167.997 229.321 167.045 228.825 166.188C228.327 165.328 227.603 164.676 226.749 164.21L224.833 167.722ZM225.529 168.968C225.529 169.213 225.458 169.452 225.186 169.75L228.134 172.452C229.02 171.486 229.529 170.303 229.529 168.968H225.529ZM225.246 169.687C225.101 169.832 224.877 169.97 224.369 169.97V173.97C225.757 173.97 227.06 173.529 228.074 172.515L225.246 169.687ZM224.369 169.97C224.116 169.97 223.954 169.921 223.841 169.865L222.052 173.443C222.783 173.808 223.569 173.97 224.369 173.97V169.97ZM223.873 169.882C221.452 168.616 219.061 167.64 216.702 166.966L215.603 170.812C217.669 171.402 219.807 172.27 222.02 173.426L223.873 169.882ZM216.702 166.966C214.272 166.272 211.527 165.941 208.49 165.941V169.941C211.246 169.941 213.609 170.242 215.603 170.812L216.702 166.966ZM208.49 165.941C203.68 165.941 199.441 166.95 195.86 169.063L197.893 172.507C200.738 170.828 204.242 169.941 208.49 169.941V165.941ZM195.869 169.057C192.374 171.096 189.706 173.94 187.899 177.554L191.477 179.342C192.935 176.426 195.06 174.16 197.885 172.513L195.869 169.057ZM187.893 177.565C186.16 181.091 185.318 185.06 185.318 189.429H189.318C189.318 185.582 190.056 182.231 191.483 179.331L187.893 177.565ZM185.318 189.429C185.318 193.799 186.16 197.789 187.888 201.36L191.488 199.618C190.056 196.658 189.318 193.275 189.318 189.429H185.318ZM187.905 201.395C189.712 204.951 192.373 207.782 195.848 209.867L197.906 206.437C195.061 204.73 192.929 202.453 191.471 199.583L187.905 201.395ZM195.882 209.887C199.458 211.939 203.689 212.917 208.49 212.917V208.917C204.232 208.917 200.721 208.052 197.872 206.417L195.882 209.887ZM208.49 212.917C211.527 212.917 214.272 212.586 216.702 211.892L215.603 208.046C213.609 208.616 211.246 208.917 208.49 208.917V212.917ZM216.702 211.892C219.061 211.218 221.452 210.242 223.873 208.976L222.02 205.432C219.807 206.588 217.669 207.456 215.603 208.046L216.702 211.892ZM223.841 208.993C223.954 208.937 224.116 208.888 224.369 208.888V204.888C223.569 204.888 222.783 205.05 222.052 205.415L223.841 208.993ZM224.369 208.888C224.877 208.888 225.101 209.026 225.246 209.171L228.074 206.343C227.06 205.329 225.757 204.888 224.369 204.888V208.888ZM225.246 209.171C225.438 209.364 225.529 209.561 225.529 209.89H229.529C229.529 208.534 229.04 207.309 228.074 206.343L225.246 209.171ZM225.529 209.89C225.529 210.288 225.447 210.521 225.364 210.665C225.282 210.805 225.137 210.97 224.833 211.136L226.749 214.648C227.603 214.182 228.327 213.53 228.825 212.67C229.321 211.813 229.529 210.861 229.529 209.89H225.529ZM224.806 211.151C222.136 212.663 219.457 213.812 216.77 214.608L217.906 218.444C220.907 217.555 223.864 216.281 226.776 214.633L224.806 211.151ZM216.76 214.611C214.193 215.386 211.207 215.79 207.779 215.79V219.79C211.513 219.79 214.9 219.351 217.916 218.441L216.76 214.611Z" fill="white"/>
<g filter="url(#filter1_d)">
<path d="M272 102H192C179.85 102 170 92.1503 170 80V0L272 102Z" fill="url(#paint2_linear)"/>
</g>
</g>
<defs>
<filter id="filter0_f" x="9" y="110" width="256" height="162" filterUnits="userSpaceOnUse" color-interpolation-filters="sRGB">
<feFlood flood-opacity="0" result="BackgroundImageFix"/>
<feBlend mode="normal" in="SourceGraphic" in2="BackgroundImageFix" result="shape"/>
<feGaussianBlur stdDeviation="19.5" result="effect1_foregroundBlur"/>
</filter>
<filter id="filter1_d" x="147" y="-24" width="152" height="152" filterUnits="userSpaceOnUse" color-interpolation-filters="sRGB">
<feFlood flood-opacity="0" result="BackgroundImageFix"/>
<feColorMatrix in="SourceAlpha" type="matrix" values="0 0 0 0 0 0 0 0 0 0 0 0 0 0 0 0 0 0 127 0" result="hardAlpha"/>
<feOffset dx="2" dy="1"/>
<feGaussianBlur stdDeviation="12.5"/>
<feColorMatrix type="matrix" values="0 0 0 0 0 0 0 0 0 0 0 0 0 0 0 0 0 0 0.33 0"/>
<feBlend mode="normal" in2="BackgroundImageFix" result="effect1_dropShadow"/>
<feBlend mode="normal" in="SourceGraphic" in2="effect1_dropShadow" result="shape"/>
</filter>
<linearGradient id="paint0_linear" x1="136" y1="0" x2="136" y2="308" gradientUnits="userSpaceOnUse">
<stop stop-color="#FF7979"/>
<stop offset="1" stop-color="#E85555"/>
</linearGradient>
<linearGradient id="paint1_linear" x1="136" y1="0" x2="136" y2="308" gradientUnits="userSpaceOnUse">
<stop stop-color="#6ABDF8"/>
<stop offset="1" stop-color="#008BD6"/>
</linearGradient>
<linearGradient id="paint2_linear" x1="221" y1="0" x2="221" y2="102" gradientUnits="userSpaceOnUse">
<stop stop-color="#009FE3"/>
<stop offset="1" stop-color="#0087C1"/>
</linearGradient>
</defs>
</svg>
