<svg width="272" height="308" viewBox="0 0 272 308" fill="none" xmlns="http://www.w3.org/2000/svg">
<mask id="mask0" style="mask-type:alpha" maskUnits="userSpaceOnUse" x="0" y="0" width="272" height="308">
<path d="M250 308H22C9.84974 308 0 298.15 0 286V22C0 9.84974 9.84974 0 22 0H170L272 102V286C272 298.15 262.15 308 250 308Z" fill="url(#paint0_linear)"/>
</mask>
<g mask="url(#mask0)">
<path d="M250 308H22C9.84974 308 0 298.15 0 286V22C0 9.84974 9.84974 0 22 0H170L272 102V286C272 298.15 262.15 308 250 308Z" fill="url(#paint1_linear)"/>
<g filter="url(#filter0_f)">
<rect x="47" y="149" width="178" height="84" fill="#3F3F46" fill-opacity="0.07" style="mix-blend-mode:darken"/>
</g>
<path d="M75.016 217.395C74.0153 217.395 73.1727 217.053 72.488 216.368C71.8033 215.683 71.461 214.841 71.461 213.84V168.573H55.345C54.397 168.573 53.607 168.257 52.975 167.625C52.343 166.993 52.027 166.203 52.027 165.255C52.027 164.307 52.343 163.517 52.975 162.885C53.607 162.2 54.397 161.858 55.345 161.858H94.687C95.635 161.858 96.425 162.2 97.057 162.885C97.7417 163.517 98.084 164.307 98.084 165.255C98.084 166.203 97.7417 166.993 97.057 167.625C96.425 168.257 95.635 168.573 94.687 168.573H78.65V213.84C78.65 214.841 78.2813 215.683 77.544 216.368C76.8593 217.053 76.0167 217.395 75.016 217.395ZM114.242 217.395C113.347 217.395 112.557 217.079 111.872 216.447C111.24 215.762 110.924 214.972 110.924 214.077C110.924 213.234 111.161 212.497 111.635 211.865L129.884 189.429L111.793 167.151C111.319 166.519 111.082 165.782 111.082 164.939C111.082 163.938 111.398 163.122 112.03 162.49C112.715 161.805 113.557 161.463 114.558 161.463C115.137 161.463 115.69 161.595 116.217 161.858C116.744 162.121 117.165 162.464 117.481 162.885L134.15 184.057L150.819 162.727C151.398 161.884 152.267 161.463 153.426 161.463C154.374 161.463 155.19 161.805 155.875 162.49C156.56 163.122 156.902 163.912 156.902 164.86C156.902 165.597 156.691 166.256 156.27 166.835L138.021 189.35L156.27 211.786C156.744 212.313 156.981 212.997 156.981 213.84C156.981 214.841 156.639 215.683 155.954 216.368C155.322 217.053 154.479 217.395 153.426 217.395C152.267 217.395 151.319 216.895 150.582 215.894L133.676 194.643L117.007 215.973C116.217 216.921 115.295 217.395 114.242 217.395ZM192.541 217.395C191.54 217.395 190.698 217.053 190.013 216.368C189.328 215.683 188.986 214.841 188.986 213.84V168.573H172.87C171.922 168.573 171.132 168.257 170.5 167.625C169.868 166.993 169.552 166.203 169.552 165.255C169.552 164.307 169.868 163.517 170.5 162.885C171.132 162.2 171.922 161.858 172.87 161.858H212.212C213.16 161.858 213.95 162.2 214.582 162.885C215.267 163.517 215.609 164.307 215.609 165.255C215.609 166.203 215.267 166.993 214.582 167.625C213.95 168.257 213.16 168.573 212.212 168.573H196.175V213.84C196.175 214.841 195.806 215.683 195.069 216.368C194.384 217.053 193.542 217.395 192.541 217.395Z" fill="white"/>
<path d="M72.488 216.368L71.0738 217.782L72.488 216.368ZM71.461 168.573H73.461V166.573H71.461V168.573ZM52.975 167.625L51.5608 169.039L51.5608 169.039L52.975 167.625ZM52.975 162.885L54.3892 164.299L54.4175 164.271L54.4446 164.242L52.975 162.885ZM97.057 162.885L95.5874 164.242L95.6417 164.3L95.7004 164.355L97.057 162.885ZM97.057 167.625L95.7004 166.155L95.6711 166.183L95.6428 166.211L97.057 167.625ZM78.65 168.573V166.573H76.65V168.573H78.65ZM77.544 216.368L76.1831 214.902L76.156 214.928L76.1298 214.954L77.544 216.368ZM75.016 215.395C74.5259 215.395 74.198 215.25 73.9022 214.954L71.0738 217.782C72.1473 218.856 73.5047 219.395 75.016 219.395V215.395ZM73.9022 214.954C73.6064 214.658 73.461 214.33 73.461 213.84H69.461C69.461 215.351 70.0002 216.709 71.0738 217.782L73.9022 214.954ZM73.461 213.84V168.573H69.461V213.84H73.461ZM71.461 166.573H55.345V170.573H71.461V166.573ZM55.345 166.573C54.8917 166.573 54.6216 166.443 54.3892 166.211L51.5608 169.039C52.5924 170.071 53.9023 170.573 55.345 170.573V166.573ZM54.3892 166.211C54.1568 165.978 54.027 165.708 54.027 165.255H50.027C50.027 166.698 50.5292 168.008 51.5608 169.039L54.3892 166.211ZM54.027 165.255C54.027 164.802 54.1568 164.532 54.3892 164.299L51.5608 161.471C50.5292 162.502 50.027 163.812 50.027 165.255H54.027ZM54.4446 164.242C54.6906 163.975 54.9441 163.858 55.345 163.858V159.858C53.8499 159.858 52.5234 160.426 51.5054 161.528L54.4446 164.242ZM55.345 163.858H94.687V159.858H55.345V163.858ZM94.687 163.858C95.0879 163.858 95.3414 163.975 95.5874 164.242L98.5266 161.528C97.5086 160.426 96.1821 159.858 94.687 159.858V163.858ZM95.7004 164.355C95.9669 164.601 96.084 164.854 96.084 165.255H100.084C100.084 163.76 99.5164 162.433 98.4136 161.415L95.7004 164.355ZM96.084 165.255C96.084 165.656 95.9669 165.909 95.7004 166.155L98.4136 169.095C99.5164 168.077 100.084 166.75 100.084 165.255H96.084ZM95.6428 166.211C95.4104 166.443 95.1403 166.573 94.687 166.573V170.573C96.1297 170.573 97.4396 170.071 98.4712 169.039L95.6428 166.211ZM94.687 166.573H78.65V170.573H94.687V166.573ZM76.65 168.573V213.84H80.65V168.573H76.65ZM76.65 213.84C76.65 214.281 76.5155 214.594 76.1831 214.902L78.9049 217.834C80.0472 216.773 80.65 215.4 80.65 213.84H76.65ZM76.1298 214.954C75.834 215.25 75.5061 215.395 75.016 215.395V219.395C76.5273 219.395 77.8847 218.856 78.9582 217.782L76.1298 214.954ZM111.872 216.447L110.402 217.804L110.457 217.862L110.515 217.917L111.872 216.447ZM111.635 211.865L110.083 210.603L110.059 210.634L110.035 210.665L111.635 211.865ZM129.884 189.429L131.436 190.691L132.461 189.43L131.437 188.168L129.884 189.429ZM111.793 167.151L110.193 168.351L110.216 168.382L110.24 168.412L111.793 167.151ZM112.03 162.49L110.616 161.076L110.616 161.076L112.03 162.49ZM116.217 161.858L117.111 160.069L116.217 161.858ZM117.481 162.885L115.881 164.085L115.895 164.104L115.91 164.122L117.481 162.885ZM134.15 184.057L132.579 185.294L134.156 187.298L135.726 185.289L134.15 184.057ZM150.819 162.727L152.395 163.959L152.432 163.91L152.467 163.86L150.819 162.727ZM155.875 162.49L154.461 163.904L154.489 163.932L154.518 163.96L155.875 162.49ZM156.27 166.835L157.824 168.094L157.857 168.054L157.887 168.011L156.27 166.835ZM138.021 189.35L136.467 188.091L135.445 189.352L136.469 190.612L138.021 189.35ZM156.27 211.786L154.718 213.048L154.75 213.087L154.783 213.124L156.27 211.786ZM155.954 216.368L154.54 214.954L154.511 214.982L154.484 215.011L155.954 216.368ZM150.582 215.894L152.192 214.708L152.17 214.678L152.147 214.649L150.582 215.894ZM133.676 194.643L135.241 193.398L133.662 191.413L132.1 193.411L133.676 194.643ZM117.007 215.973L118.543 217.253L118.564 217.229L118.583 217.205L117.007 215.973ZM114.242 215.395C113.872 215.395 113.56 215.284 113.229 214.977L110.515 217.917C111.553 218.874 112.822 219.395 114.242 219.395V215.395ZM113.342 215.09C113.035 214.759 112.924 214.447 112.924 214.077H108.924C108.924 215.497 109.445 216.766 110.402 217.804L113.342 215.09ZM112.924 214.077C112.924 213.636 113.038 213.327 113.235 213.065L110.035 210.665C109.283 211.667 108.924 212.832 108.924 214.077H112.924ZM113.187 213.127L131.436 190.691L128.332 188.167L110.083 210.603L113.187 213.127ZM131.437 188.168L113.346 165.89L110.24 168.412L128.331 190.69L131.437 188.168ZM113.393 165.951C113.196 165.689 113.082 165.38 113.082 164.939H109.082C109.082 166.184 109.441 167.349 110.193 168.351L113.393 165.951ZM113.082 164.939C113.082 164.399 113.234 164.115 113.444 163.904L110.616 161.076C109.562 162.129 109.082 163.477 109.082 164.939H113.082ZM113.444 163.904C113.74 163.608 114.068 163.463 114.558 163.463V159.463C113.047 159.463 111.689 160.002 110.616 161.076L113.444 163.904ZM114.558 163.463C114.822 163.463 115.069 163.52 115.323 163.647L117.111 160.069C116.312 159.669 115.453 159.463 114.558 159.463V163.463ZM115.323 163.647C115.605 163.788 115.772 163.94 115.881 164.085L119.081 161.685C118.558 160.987 117.883 160.455 117.111 160.069L115.323 163.647ZM115.91 164.122L132.579 185.294L135.721 182.82L119.052 161.648L115.91 164.122ZM135.726 185.289L152.395 163.959L149.243 161.495L132.574 182.825L135.726 185.289ZM152.467 163.86C152.619 163.639 152.824 163.463 153.426 163.463V159.463C151.711 159.463 150.178 160.13 149.171 161.594L152.467 163.86ZM153.426 163.463C153.831 163.463 154.142 163.586 154.461 163.904L157.289 161.076C156.238 160.025 154.917 159.463 153.426 159.463V163.463ZM154.518 163.96C154.785 164.206 154.902 164.459 154.902 164.86H158.902C158.902 163.365 158.334 162.038 157.232 161.02L154.518 163.96ZM154.902 164.86C154.902 165.188 154.818 165.432 154.652 165.659L157.887 168.011C158.565 167.08 158.902 166.007 158.902 164.86H154.902ZM154.716 165.576L136.467 188.091L139.575 190.609L157.824 168.094L154.716 165.576ZM136.469 190.612L154.718 213.048L157.822 210.524L139.573 188.088L136.469 190.612ZM154.783 213.124C154.866 213.216 154.981 213.393 154.981 213.84H158.981C158.981 212.602 158.622 211.409 157.757 210.448L154.783 213.124ZM154.981 213.84C154.981 214.33 154.836 214.658 154.54 214.954L157.368 217.782C158.442 216.709 158.981 215.351 158.981 213.84H154.981ZM154.484 215.011C154.282 215.23 154.002 215.395 153.426 215.395V219.395C154.957 219.395 156.362 218.875 157.424 217.725L154.484 215.011ZM153.426 215.395C152.955 215.395 152.584 215.24 152.192 214.708L148.972 217.08C150.054 218.549 151.58 219.395 153.426 219.395V215.395ZM152.147 214.649L135.241 193.398L132.111 195.888L149.017 217.139L152.147 214.649ZM132.1 193.411L115.431 214.741L118.583 217.205L135.252 195.875L132.1 193.411ZM115.471 214.693C114.988 215.272 114.597 215.395 114.242 215.395V219.395C115.993 219.395 117.446 218.57 118.543 217.253L115.471 214.693ZM190.013 216.368L188.599 217.782L190.013 216.368ZM188.986 168.573H190.986V166.573H188.986V168.573ZM170.5 167.625L169.086 169.039L169.086 169.039L170.5 167.625ZM170.5 162.885L171.914 164.299L171.942 164.271L171.969 164.242L170.5 162.885ZM214.582 162.885L213.112 164.242L213.167 164.3L213.225 164.355L214.582 162.885ZM214.582 167.625L213.225 166.155L213.196 166.183L213.168 166.211L214.582 167.625ZM196.175 168.573V166.573H194.175V168.573H196.175ZM195.069 216.368L193.708 214.902L193.681 214.928L193.655 214.954L195.069 216.368ZM192.541 215.395C192.051 215.395 191.723 215.25 191.427 214.954L188.599 217.782C189.672 218.856 191.03 219.395 192.541 219.395V215.395ZM191.427 214.954C191.131 214.658 190.986 214.33 190.986 213.84H186.986C186.986 215.351 187.525 216.709 188.599 217.782L191.427 214.954ZM190.986 213.84V168.573H186.986V213.84H190.986ZM188.986 166.573H172.87V170.573H188.986V166.573ZM172.87 166.573C172.417 166.573 172.146 166.443 171.914 166.211L169.086 169.039C170.117 170.071 171.427 170.573 172.87 170.573V166.573ZM171.914 166.211C171.682 165.978 171.552 165.708 171.552 165.255H167.552C167.552 166.698 168.054 168.008 169.086 169.039L171.914 166.211ZM171.552 165.255C171.552 164.802 171.682 164.532 171.914 164.299L169.086 161.471C168.054 162.502 167.552 163.812 167.552 165.255H171.552ZM171.969 164.242C172.215 163.975 172.469 163.858 172.87 163.858V159.858C171.375 159.858 170.048 160.426 169.03 161.528L171.969 164.242ZM172.87 163.858H212.212V159.858H172.87V163.858ZM212.212 163.858C212.613 163.858 212.866 163.975 213.112 164.242L216.051 161.528C215.033 160.426 213.707 159.858 212.212 159.858V163.858ZM213.225 164.355C213.492 164.601 213.609 164.854 213.609 165.255H217.609C217.609 163.76 217.041 162.433 215.938 161.415L213.225 164.355ZM213.609 165.255C213.609 165.656 213.492 165.909 213.225 166.155L215.938 169.095C217.041 168.077 217.609 166.75 217.609 165.255H213.609ZM213.168 166.211C212.935 166.443 212.665 166.573 212.212 166.573V170.573C213.655 170.573 214.964 170.071 215.996 169.039L213.168 166.211ZM212.212 166.573H196.175V170.573H212.212V166.573ZM194.175 168.573V213.84H198.175V168.573H194.175ZM194.175 213.84C194.175 214.281 194.04 214.594 193.708 214.902L196.43 217.834C197.572 216.773 198.175 215.4 198.175 213.84H194.175ZM193.655 214.954C193.359 215.25 193.031 215.395 192.541 215.395V219.395C194.052 219.395 195.41 218.856 196.483 217.782L193.655 214.954Z" fill="white"/>
<g filter="url(#filter1_d)">
<path d="M272 102H192C179.85 102 170 92.1503 170 80V0L272 102Z" fill="url(#paint2_linear)"/>
</g>
</g>
<defs>
<filter id="filter0_f" x="8" y="110" width="256" height="162" filterUnits="userSpaceOnUse" color-interpolation-filters="sRGB">
<feFlood flood-opacity="0" result="BackgroundImageFix"/>
<feBlend mode="normal" in="SourceGraphic" in2="BackgroundImageFix" result="shape"/>
<feGaussianBlur stdDeviation="19.5" result="effect1_foregroundBlur"/>
</filter>
<filter id="filter1_d" x="147" y="-24" width="152" height="152" filterUnits="userSpaceOnUse" color-interpolation-filters="sRGB">
<feFlood flood-opacity="0" result="BackgroundImageFix"/>
<feColorMatrix in="SourceAlpha" type="matrix" values="0 0 0 0 0 0 0 0 0 0 0 0 0 0 0 0 0 0 127 0" result="hardAlpha"/>
<feOffset dx="2" dy="1"/>
<feGaussianBlur stdDeviation="12.5"/>
<feColorMatrix type="matrix" values="0 0 0 0 0 0 0 0 0 0 0 0 0 0 0 0 0 0 0.33 0"/>
<feBlend mode="normal" in2="BackgroundImageFix" result="effect1_dropShadow"/>
<feBlend mode="normal" in="SourceGraphic" in2="effect1_dropShadow" result="shape"/>
</filter>
<linearGradient id="paint0_linear" x1="136" y1="0" x2="136" y2="308" gradientUnits="userSpaceOnUse">
<stop stop-color="#FF7979"/>
<stop offset="1" stop-color="#E85555"/>
</linearGradient>
<linearGradient id="paint1_linear" x1="136" y1="0" x2="136" y2="308" gradientUnits="userSpaceOnUse">
<stop stop-color="#B4B6BC"/>
<stop offset="0.0730828" stop-color="#B1B3B9"/>
<stop offset="1" stop-color="#8D8F94"/>
</linearGradient>
<linearGradient id="paint2_linear" x1="221" y1="0" x2="221" y2="102" gradientUnits="userSpaceOnUse">
<stop stop-color="#979CAB"/>
<stop offset="1" stop-color="#797C88"/>
</linearGradient>
</defs>
</svg>
