<svg width="272" height="308" viewBox="0 0 272 308" fill="none" xmlns="http://www.w3.org/2000/svg">
<mask id="mask0" style="mask-type:alpha" maskUnits="userSpaceOnUse" x="0" y="0" width="272" height="308">
<path d="M250 308H22C9.84974 308 0 298.15 0 286V22C0 9.84974 9.84974 0 22 0H170L272 102V286C272 298.15 262.15 308 250 308Z" fill="url(#paint0_linear)"/>
</mask>
<g mask="url(#mask0)">
<path d="M250 308H22C9.84974 308 0 298.15 0 286V22C0 9.84974 9.84974 0 22 0H170L272 102V286C272 298.15 262.15 308 250 308Z" fill="url(#paint1_linear)"/>
<g opacity="0.82" filter="url(#filter0_f)">
<rect x="48" y="149" width="178" height="84" fill="#0F7D56" fill-opacity="0.27" style="mix-blend-mode:darken"/>
</g>
<path d="M63.794 217.395C62.8987 217.395 62.1087 217.079 61.424 216.447C60.792 215.762 60.476 214.972 60.476 214.077C60.476 213.234 60.713 212.497 61.187 211.865L79.436 189.429L61.345 167.151C60.871 166.519 60.634 165.782 60.634 164.939C60.634 163.938 60.95 163.122 61.582 162.49C62.2667 161.805 63.1093 161.463 64.11 161.463C64.6893 161.463 65.2423 161.595 65.769 161.858C66.2957 162.121 66.717 162.464 67.033 162.885L83.702 184.057L100.371 162.727C100.95 161.884 101.819 161.463 102.978 161.463C103.926 161.463 104.742 161.805 105.427 162.49C106.112 163.122 106.454 163.912 106.454 164.86C106.454 165.597 106.243 166.256 105.822 166.835L87.573 189.35L105.822 211.786C106.296 212.313 106.533 212.997 106.533 213.84C106.533 214.841 106.191 215.683 105.506 216.368C104.874 217.053 104.031 217.395 102.978 217.395C101.819 217.395 100.871 216.895 100.134 215.894L83.228 194.643L66.559 215.973C65.769 216.921 64.8473 217.395 63.794 217.395ZM128.171 217C126.802 217 125.617 216.526 124.616 215.578C123.668 214.577 123.194 213.392 123.194 212.023V165.097C123.194 164.096 123.536 163.254 124.221 162.569C124.906 161.832 125.748 161.463 126.749 161.463C127.75 161.463 128.592 161.832 129.277 162.569C130.014 163.254 130.383 164.096 130.383 165.097V209.811H156.216C157.217 209.811 158.059 210.18 158.744 210.917C159.481 211.602 159.85 212.444 159.85 213.445C159.85 214.446 159.481 215.288 158.744 215.973C158.059 216.658 157.217 217 156.216 217H128.171ZM191.622 217.79C184.933 217.79 178.666 216.526 172.82 213.998C172.188 213.735 171.661 213.313 171.24 212.734C170.818 212.102 170.608 211.444 170.608 210.759C170.608 209.864 170.897 209.1 171.477 208.468C172.109 207.783 172.899 207.441 173.847 207.441C174.373 207.441 174.874 207.546 175.348 207.757C180.193 209.916 185.381 210.996 190.911 210.996C200.127 210.996 204.736 207.968 204.736 201.911C204.736 200.331 204.13 199.014 202.919 197.961C201.76 196.908 200.312 196.091 198.574 195.512C196.836 194.88 194.36 194.143 191.148 193.3C186.882 192.194 183.432 191.141 180.799 190.14C178.165 189.087 175.901 187.533 174.005 185.479C172.109 183.425 171.161 180.686 171.161 177.263C171.161 174.261 171.951 171.549 173.531 169.126C175.111 166.651 177.428 164.702 180.483 163.28C183.59 161.805 187.303 161.068 191.622 161.068C197.415 161.068 202.655 161.937 207.343 163.675C208.817 164.202 209.555 165.255 209.555 166.835C209.555 167.678 209.265 168.441 208.686 169.126C208.106 169.811 207.343 170.153 206.395 170.153C206.079 170.153 205.657 170.048 205.131 169.837C201.023 168.415 196.783 167.704 192.412 167.704C188.251 167.704 184.854 168.494 182.221 170.074C179.64 171.654 178.35 173.866 178.35 176.71C178.35 178.606 178.955 180.16 180.167 181.371C181.431 182.53 182.984 183.451 184.828 184.136C186.724 184.768 189.278 185.453 192.491 186.19C196.651 187.191 199.996 188.191 202.524 189.192C205.104 190.193 207.29 191.746 209.081 193.853C210.924 195.96 211.846 198.804 211.846 202.385C211.846 205.334 211.003 207.994 209.318 210.364C207.632 212.681 205.262 214.498 202.208 215.815C199.153 217.132 195.624 217.79 191.622 217.79Z" fill="white"/>
<path d="M61.424 216.447L59.9544 217.804L60.0087 217.862L60.0674 217.917L61.424 216.447ZM61.187 211.865L59.6354 210.603L59.6106 210.634L59.587 210.665L61.187 211.865ZM79.436 189.429L80.9876 190.691L82.0132 189.43L80.9886 188.168L79.436 189.429ZM61.345 167.151L59.745 168.351L59.7681 168.382L59.7924 168.412L61.345 167.151ZM61.582 162.49L60.1678 161.076L60.1678 161.076L61.582 162.49ZM65.769 161.858L66.6634 160.069H66.6634L65.769 161.858ZM67.033 162.885L65.433 164.085L65.4471 164.104L65.4616 164.122L67.033 162.885ZM83.702 184.057L82.1306 185.294L83.7079 187.298L85.2779 185.289L83.702 184.057ZM100.371 162.727L101.947 163.959L101.984 163.91L102.019 163.86L100.371 162.727ZM105.427 162.49L104.013 163.904L104.041 163.932L104.07 163.96L105.427 162.49ZM105.822 166.835L107.376 168.094L107.409 168.054L107.439 168.011L105.822 166.835ZM87.573 189.35L86.0193 188.091L84.9968 189.352L86.0214 190.612L87.573 189.35ZM105.822 211.786L104.27 213.048L104.302 213.087L104.335 213.124L105.822 211.786ZM105.506 216.368L104.092 214.954L104.064 214.982L104.036 215.011L105.506 216.368ZM100.134 215.894L101.744 214.708L101.722 214.678L101.699 214.649L100.134 215.894ZM83.228 194.643L84.7931 193.398L83.214 191.413L81.6521 193.411L83.228 194.643ZM66.559 215.973L68.0954 217.253L68.1155 217.229L68.1349 217.205L66.559 215.973ZM63.794 215.395C63.4235 215.395 63.1123 215.284 62.7806 214.977L60.0674 217.917C61.105 218.874 62.3738 219.395 63.794 219.395V215.395ZM62.8936 215.09C62.5873 214.759 62.476 214.447 62.476 214.077H58.476C58.476 215.497 58.9967 216.766 59.9544 217.804L62.8936 215.09ZM62.476 214.077C62.476 213.636 62.5905 213.327 62.787 213.065L59.587 210.665C58.8355 211.667 58.476 212.832 58.476 214.077H62.476ZM62.7386 213.127L80.9876 190.691L77.8844 188.167L59.6354 210.603L62.7386 213.127ZM80.9886 188.168L62.8976 165.89L59.7924 168.412L77.8834 190.69L80.9886 188.168ZM62.945 165.951C62.7485 165.689 62.634 165.38 62.634 164.939H58.634C58.634 166.184 58.9935 167.349 59.745 168.351L62.945 165.951ZM62.634 164.939C62.634 164.399 62.7856 164.115 62.9962 163.904L60.1678 161.076C59.1144 162.129 58.634 163.477 58.634 164.939H62.634ZM62.9962 163.904C63.292 163.608 63.6199 163.463 64.11 163.463V159.463C62.5987 159.463 61.2413 160.002 60.1678 161.076L62.9962 163.904ZM64.11 163.463C64.3736 163.463 64.6209 163.52 64.8746 163.647L66.6634 160.069C65.8638 159.669 65.0051 159.463 64.11 159.463V163.463ZM64.8746 163.647C65.1567 163.788 65.3243 163.94 65.433 164.085L68.633 161.685C68.1097 160.987 67.4347 160.455 66.6634 160.069L64.8746 163.647ZM65.4616 164.122L82.1306 185.294L85.2734 182.82L68.6044 161.648L65.4616 164.122ZM85.2779 185.289L101.947 163.959L98.7951 161.495L82.1261 182.825L85.2779 185.289ZM102.019 163.86C102.171 163.639 102.376 163.463 102.978 163.463V159.463C101.263 159.463 99.7296 160.13 98.7229 161.594L102.019 163.86ZM102.978 163.463C103.383 163.463 103.694 163.586 104.013 163.904L106.841 161.076C105.79 160.025 104.469 159.463 102.978 159.463V163.463ZM104.07 163.96C104.337 164.206 104.454 164.459 104.454 164.86H108.454C108.454 163.365 107.886 162.038 106.784 161.02L104.07 163.96ZM104.454 164.86C104.454 165.188 104.37 165.432 104.205 165.659L107.439 168.011C108.117 167.08 108.454 166.007 108.454 164.86H104.454ZM104.268 165.576L86.0193 188.091L89.1267 190.609L107.376 168.094L104.268 165.576ZM86.0214 190.612L104.27 213.048L107.374 210.524L89.1246 188.088L86.0214 190.612ZM104.335 213.124C104.418 213.216 104.533 213.393 104.533 213.84H108.533C108.533 212.602 108.174 211.409 107.309 210.448L104.335 213.124ZM104.533 213.84C104.533 214.33 104.388 214.658 104.092 214.954L106.92 217.782C107.994 216.709 108.533 215.351 108.533 213.84H104.533ZM104.036 215.011C103.834 215.23 103.554 215.395 102.978 215.395V219.395C104.509 219.395 105.914 218.875 106.976 217.725L104.036 215.011ZM102.978 215.395C102.507 215.395 102.136 215.24 101.744 214.708L98.5239 217.08C99.6062 218.549 101.132 219.395 102.978 219.395V215.395ZM101.699 214.649L84.7931 193.398L81.6629 195.888L98.5689 217.139L101.699 214.649ZM81.6521 193.411L64.9831 214.741L68.1349 217.205L84.8039 195.875L81.6521 193.411ZM65.0226 214.693C64.5401 215.272 64.1492 215.395 63.794 215.395V219.395C65.5455 219.395 66.9979 218.57 68.0954 217.253L65.0226 214.693ZM124.616 215.578L123.164 216.953L123.201 216.993L123.24 217.03L124.616 215.578ZM124.221 162.569L125.635 163.983L125.661 163.957L125.687 163.93L124.221 162.569ZM129.277 162.569L127.811 163.93L127.862 163.984L127.916 164.035L129.277 162.569ZM130.383 209.811H128.383V211.811H130.383V209.811ZM158.744 210.917L157.278 212.278L157.329 212.332L157.383 212.383L158.744 210.917ZM158.744 215.973L157.383 214.507L157.356 214.533L157.33 214.559L158.744 215.973ZM128.171 215C127.317 215 126.623 214.725 125.991 214.126L123.24 217.03C124.61 218.327 126.286 219 128.171 219V215ZM126.068 214.203C125.469 213.571 125.194 212.877 125.194 212.023H121.194C121.194 213.908 121.867 215.584 123.164 216.953L126.068 214.203ZM125.194 212.023V165.097H121.194V212.023H125.194ZM125.194 165.097C125.194 164.607 125.339 164.279 125.635 163.983L122.807 161.155C121.733 162.228 121.194 163.586 121.194 165.097H125.194ZM125.687 163.93C125.995 163.598 126.308 163.463 126.749 163.463V159.463C125.189 159.463 123.816 160.066 122.755 161.208L125.687 163.93ZM126.749 163.463C127.19 163.463 127.503 163.598 127.811 163.93L130.743 161.208C129.682 160.066 128.309 159.463 126.749 159.463V163.463ZM127.916 164.035C128.248 164.343 128.383 164.656 128.383 165.097H132.383C132.383 163.537 131.78 162.164 130.638 161.103L127.916 164.035ZM128.383 165.097V209.811H132.383V165.097H128.383ZM130.383 211.811H156.216V207.811H130.383V211.811ZM156.216 211.811C156.657 211.811 156.97 211.946 157.278 212.278L160.21 209.556C159.149 208.414 157.776 207.811 156.216 207.811V211.811ZM157.383 212.383C157.715 212.691 157.85 213.004 157.85 213.445H161.85C161.85 211.885 161.247 210.512 160.105 209.451L157.383 212.383ZM157.85 213.445C157.85 213.886 157.715 214.199 157.383 214.507L160.105 217.439C161.247 216.378 161.85 215.005 161.85 213.445H157.85ZM157.33 214.559C157.034 214.855 156.706 215 156.216 215V219C157.727 219 159.085 218.461 160.158 217.387L157.33 214.559ZM156.216 215H128.171V219H156.216V215ZM172.82 213.998L173.613 212.162L173.601 212.157L173.589 212.152L172.82 213.998ZM171.24 212.734L169.575 213.843L169.598 213.877L169.622 213.91L171.24 212.734ZM171.477 208.468L170.007 207.111L170.002 207.117L171.477 208.468ZM175.348 207.757L176.162 205.93L176.16 205.929L175.348 207.757ZM202.919 197.961L201.573 199.441L201.59 199.456L201.606 199.47L202.919 197.961ZM198.574 195.512L197.89 197.392L197.915 197.401L197.941 197.409L198.574 195.512ZM191.148 193.3L191.655 191.365L191.649 191.364L191.148 193.3ZM180.799 190.14L180.056 191.997L180.072 192.003L180.088 192.01L180.799 190.14ZM174.005 185.479L172.535 186.836L174.005 185.479ZM173.531 169.126L175.206 170.219L175.211 170.21L175.216 170.202L173.531 169.126ZM180.483 163.28L181.327 165.093L181.333 165.09L181.34 165.087L180.483 163.28ZM207.343 163.675L206.647 165.55L206.659 165.554L206.67 165.558L207.343 163.675ZM208.686 169.126L210.212 170.418V170.418L208.686 169.126ZM205.131 169.837L205.873 167.98L205.829 167.962L205.785 167.947L205.131 169.837ZM182.221 170.074L181.192 168.359L181.184 168.364L181.176 168.368L182.221 170.074ZM180.167 181.371L178.752 182.785L178.783 182.816L178.815 182.845L180.167 181.371ZM184.828 184.136L184.131 186.011L184.163 186.023L184.195 186.033L184.828 184.136ZM192.491 186.19L192.958 184.245L192.948 184.243L192.938 184.241L192.491 186.19ZM202.524 189.192L201.787 191.052L201.8 191.057L202.524 189.192ZM209.081 193.853L207.557 195.148L207.566 195.159L207.575 195.17L209.081 193.853ZM209.318 210.364L210.935 211.54L210.941 211.532L210.947 211.523L209.318 210.364ZM202.208 215.815L202.999 217.652L202.208 215.815ZM191.622 215.79C185.192 215.79 179.196 214.577 173.613 212.162L172.026 215.834C178.135 218.475 184.674 219.79 191.622 219.79V215.79ZM173.589 212.152C173.312 212.036 173.073 211.854 172.857 211.558L169.622 213.91C170.249 214.772 171.063 215.433 172.05 215.844L173.589 212.152ZM172.904 211.625C172.676 211.284 172.608 211.006 172.608 210.759H168.608C168.608 211.881 168.96 212.92 169.575 213.843L172.904 211.625ZM172.608 210.759C172.608 210.34 172.726 210.065 172.951 209.819L170.002 207.117C169.069 208.135 168.608 209.388 168.608 210.759H172.608ZM172.946 209.825C173.192 209.558 173.446 209.441 173.847 209.441V205.441C172.351 205.441 171.025 206.009 170.007 207.111L172.946 209.825ZM173.847 209.441C174.098 209.441 174.321 209.489 174.535 209.585L176.16 205.929C175.426 205.603 174.649 205.441 173.847 205.441V209.441ZM174.533 209.584C179.646 211.862 185.112 212.996 190.911 212.996V208.996C185.649 208.996 180.74 207.97 176.162 205.93L174.533 209.584ZM190.911 212.996C195.674 212.996 199.595 212.225 202.378 210.396C205.307 208.471 206.736 205.534 206.736 201.911H202.736C202.736 204.344 201.86 205.95 200.181 207.053C198.356 208.253 195.363 208.996 190.911 208.996V212.996ZM206.736 201.911C206.736 199.742 205.871 197.878 204.231 196.452L201.606 199.47C202.389 200.151 202.736 200.92 202.736 201.911H206.736ZM204.264 196.481C202.867 195.211 201.164 194.267 199.206 193.615L197.941 197.409C199.459 197.915 200.653 198.604 201.573 199.441L204.264 196.481ZM199.257 193.632C197.433 192.969 194.888 192.214 191.655 191.365L190.64 195.235C193.832 196.072 196.238 196.791 197.89 197.392L199.257 193.632ZM191.649 191.364C187.42 190.267 184.047 189.235 181.509 188.27L180.088 192.01C182.816 193.046 186.344 194.121 190.646 195.236L191.649 191.364ZM181.541 188.283C179.18 187.339 177.165 185.954 175.474 184.122L172.535 186.836C174.636 189.112 177.15 190.835 180.056 191.997L181.541 188.283ZM175.474 184.122C173.992 182.517 173.161 180.302 173.161 177.263H169.161C169.161 181.07 170.225 184.333 172.535 186.836L175.474 184.122ZM173.161 177.263C173.161 174.633 173.846 172.303 175.206 170.219L171.855 168.033C170.055 170.794 169.161 173.889 169.161 177.263H173.161ZM175.216 170.202C176.563 168.093 178.565 166.379 181.327 165.093L179.638 161.467C176.291 163.025 173.658 165.209 171.845 168.05L175.216 170.202ZM181.34 165.087C184.12 163.768 187.526 163.068 191.622 163.068V159.068C187.08 159.068 183.06 159.843 179.625 161.473L181.34 165.087ZM191.622 163.068C197.215 163.068 202.215 163.907 206.647 165.55L208.038 161.8C203.096 159.967 197.615 159.068 191.622 159.068V163.068ZM206.67 165.558C207.103 165.713 207.28 165.888 207.363 166.007C207.447 166.127 207.555 166.36 207.555 166.835H211.555C211.555 165.73 211.293 164.646 210.64 163.713C209.986 162.778 209.057 162.163 208.015 161.792L206.67 165.558ZM207.555 166.835C207.555 167.173 207.454 167.485 207.159 167.834L210.212 170.418C211.076 169.397 211.555 168.183 211.555 166.835H207.555ZM207.159 167.834C206.984 168.041 206.793 168.153 206.395 168.153V172.153C207.893 172.153 209.229 171.58 210.212 170.418L207.159 167.834ZM206.395 168.153C206.448 168.153 206.433 168.16 206.327 168.134C206.225 168.108 206.077 168.061 205.873 167.98L204.388 171.694C204.993 171.936 205.697 172.153 206.395 172.153V168.153ZM205.785 167.947C201.465 166.452 197.004 165.704 192.412 165.704V169.704C196.561 169.704 200.58 170.378 204.476 171.727L205.785 167.947ZM192.412 165.704C188.012 165.704 184.227 166.538 181.192 168.359L183.25 171.789C185.481 170.45 188.489 169.704 192.412 169.704V165.704ZM181.176 168.368C178.048 170.284 176.35 173.118 176.35 176.71H180.35C180.35 174.614 181.232 173.024 183.265 171.78L181.176 168.368ZM176.35 176.71C176.35 179.074 177.124 181.157 178.752 182.785L181.581 179.957C180.786 179.162 180.35 178.138 180.35 176.71H176.35ZM178.815 182.845C180.295 184.202 182.081 185.249 184.131 186.011L185.524 182.261C183.888 181.653 182.566 180.857 181.518 179.897L178.815 182.845ZM184.195 186.033C186.178 186.694 188.802 187.396 192.043 188.139L192.938 184.241C189.753 183.51 187.269 182.842 185.46 182.239L184.195 186.033ZM192.023 188.135C196.138 189.124 199.382 190.099 201.787 191.052L203.26 187.332C200.61 186.283 197.165 185.257 192.958 184.245L192.023 188.135ZM201.8 191.057C204.071 191.937 205.982 193.295 207.557 195.148L210.604 192.558C208.598 190.197 206.137 188.448 203.247 187.327L201.8 191.057ZM207.575 195.17C209.019 196.82 209.846 199.149 209.846 202.385H213.846C213.846 198.458 212.829 195.1 210.586 192.536L207.575 195.17ZM209.846 202.385C209.846 204.925 209.129 207.179 207.688 209.205L210.947 211.523C212.877 208.809 213.846 205.743 213.846 202.385H209.846ZM207.7 209.188C206.258 211.171 204.195 212.781 201.416 213.978L202.999 217.652C206.33 216.216 209.007 214.192 210.935 211.54L207.7 209.188ZM201.416 213.978C198.657 215.168 195.406 215.79 191.622 215.79V219.79C195.842 219.79 199.649 219.096 202.999 217.652L201.416 213.978Z" fill="white"/>
<g filter="url(#filter1_d)">
<path d="M272 102H192C179.85 102 170 92.1503 170 80V0L272 102Z" fill="url(#paint2_linear)"/>
</g>
</g>
<defs>
<filter id="filter0_f" x="9" y="110" width="256" height="162" filterUnits="userSpaceOnUse" color-interpolation-filters="sRGB">
<feFlood flood-opacity="0" result="BackgroundImageFix"/>
<feBlend mode="normal" in="SourceGraphic" in2="BackgroundImageFix" result="shape"/>
<feGaussianBlur stdDeviation="19.5" result="effect1_foregroundBlur"/>
</filter>
<filter id="filter1_d" x="147" y="-24" width="152" height="152" filterUnits="userSpaceOnUse" color-interpolation-filters="sRGB">
<feFlood flood-opacity="0" result="BackgroundImageFix"/>
<feColorMatrix in="SourceAlpha" type="matrix" values="0 0 0 0 0 0 0 0 0 0 0 0 0 0 0 0 0 0 127 0" result="hardAlpha"/>
<feOffset dx="2" dy="1"/>
<feGaussianBlur stdDeviation="12.5"/>
<feColorMatrix type="matrix" values="0 0 0 0 0 0 0 0 0 0 0 0 0 0 0 0 0 0 0.33 0"/>
<feBlend mode="normal" in2="BackgroundImageFix" result="effect1_dropShadow"/>
<feBlend mode="normal" in="SourceGraphic" in2="effect1_dropShadow" result="shape"/>
</filter>
<linearGradient id="paint0_linear" x1="136" y1="0" x2="136" y2="308" gradientUnits="userSpaceOnUse">
<stop stop-color="#FF7979"/>
<stop offset="1" stop-color="#E85555"/>
</linearGradient>
<linearGradient id="paint1_linear" x1="136" y1="0" x2="136" y2="308" gradientUnits="userSpaceOnUse">
<stop offset="0.000265127" stop-color="#83CC70"/>
<stop offset="1" stop-color="#61A850"/>
</linearGradient>
<linearGradient id="paint2_linear" x1="221" y1="0" x2="221" y2="102" gradientUnits="userSpaceOnUse">
<stop stop-color="#3FAF43"/>
<stop offset="1" stop-color="#0E8312"/>
</linearGradient>
</defs>
</svg>
